<svg width="54" height="36" viewBox="0 0 54 36" fill="none" xmlns="http://www.w3.org/2000/svg">
<path d="M1 6C1 3.23858 3.23858 1 6 1H48C50.7614 1 53 3.23858 53 6V30C53 32.7614 50.7614 35 48 35H6C3.23858 35 1 32.7614 1 30V6Z" fill="white"/>
<path d="M48.441 1H5.55896C3.04111 1 1 2.84219 1 5.11466V30.8853C1 33.1578 3.04111 35 5.55896 35H48.441C50.9589 35 53 33.1578 53 30.8853V5.11466C53 2.84219 50.9589 1 48.441 1Z" stroke="#BDBFC1" stroke-width="0.0847" stroke-miterlimit="22.9256"/>
<path d="M14.0495 29.8677C13.9379 29.7573 13.8051 29.6713 13.6515 29.61C13.498 29.5489 13.3297 29.5183 13.1472 29.5183C13.0505 29.5183 12.9501 29.5265 12.8459 29.5428C12.7416 29.5593 12.6397 29.5884 12.5397 29.6297C12.4398 29.6713 12.3448 29.7288 12.2545 29.8021C12.1644 29.8754 12.0858 29.9679 12.0193 30.0795C11.9118 29.9046 11.7663 29.767 11.5826 29.6674C11.3989 29.568 11.1889 29.5183 10.9527 29.5183C10.8731 29.5183 10.7909 29.5252 10.7062 29.5395C10.6212 29.5538 10.5369 29.5786 10.4532 29.6134C10.3693 29.6485 10.2893 29.696 10.2131 29.756C10.1368 29.8163 10.0676 29.8925 10.0052 29.9842V29.6002H9.33496V32.7448H10.0118V31.002C10.0118 30.8683 10.0331 30.7498 10.076 30.6457C10.1192 30.542 10.1767 30.455 10.2486 30.3847C10.3205 30.3146 10.4048 30.2617 10.5014 30.2256C10.5983 30.1896 10.7012 30.1714 10.8109 30.1714C11.0385 30.1714 11.2152 30.2425 11.3408 30.3847C11.4667 30.5271 11.5293 30.7304 11.5293 30.9953V32.7448H12.2063V31.002C12.2063 30.8683 12.2276 30.7498 12.2706 30.6457C12.3136 30.542 12.371 30.455 12.4432 30.3847C12.5151 30.3146 12.5994 30.2617 12.6961 30.2256C12.7926 30.1896 12.8957 30.1714 13.0055 30.1714C13.233 30.1714 13.4099 30.2425 13.5354 30.3847C13.6612 30.5271 13.724 30.7304 13.724 30.9953V32.7448H14.4009V30.7689C14.4009 30.5852 14.3703 30.4165 14.3089 30.2633C14.2477 30.1103 14.1611 29.9783 14.0495 29.8677Z" fill="#BDBFC1"/>
<path d="M17.6191 29.9812C17.5081 29.841 17.3703 29.7287 17.2062 29.6446C17.0419 29.5605 16.8453 29.5183 16.6168 29.5183C16.3928 29.5183 16.184 29.5593 15.9908 29.6414C15.7978 29.7235 15.6289 29.8377 15.4847 29.9842C15.3404 30.1309 15.2272 30.3055 15.1451 30.508C15.0629 30.7103 15.022 30.9317 15.022 31.1727C15.022 31.4133 15.0629 31.6347 15.1451 31.8372C15.2272 32.0395 15.3404 32.2141 15.4847 32.3608C15.6289 32.5074 15.7978 32.6217 15.9908 32.7038C16.184 32.7857 16.3928 32.8269 16.6168 32.8269C16.8453 32.8269 17.0419 32.7851 17.2062 32.7022C17.3703 32.6191 17.5081 32.5074 17.6191 32.3673V32.7448H18.3149V29.6002H17.6191V29.9812ZM17.5924 31.573C17.5457 31.6954 17.4804 31.8018 17.3961 31.8914C17.3116 31.981 17.2105 32.0515 17.0929 32.1031C16.9751 32.1546 16.8443 32.1801 16.7001 32.1801C16.5492 32.1801 16.4143 32.1534 16.2954 32.0998C16.1766 32.0462 16.0762 31.9741 15.9941 31.8832C15.9121 31.7924 15.8488 31.6858 15.8044 31.563C15.76 31.4406 15.7378 31.3104 15.7378 31.1727C15.7378 31.0346 15.76 30.9044 15.8044 30.782C15.8488 30.6593 15.9121 30.5528 15.9941 30.4619C16.0762 30.3711 16.1766 30.2987 16.2954 30.2452C16.4143 30.1916 16.5492 30.1649 16.7001 30.1649C16.8443 30.1649 16.9751 30.1906 17.0929 30.2419C17.2105 30.2935 17.3116 30.3639 17.3961 30.4538C17.4804 30.5434 17.5457 30.6495 17.5924 30.7722C17.6391 30.8946 17.6623 31.0283 17.6623 31.1727C17.6623 31.3171 17.6391 31.4504 17.5924 31.573Z" fill="#BDBFC1"/>
<path d="M21.5136 31.1678C21.3181 31.0178 21.0461 30.9178 20.6977 30.8675L20.3681 30.8182C20.2949 30.8072 20.2261 30.7947 20.1616 30.7805C20.0971 30.7662 20.0418 30.7471 19.9953 30.723C19.9488 30.699 19.9113 30.6684 19.8837 30.631C19.856 30.5939 19.8421 30.548 19.8421 30.4932C19.8421 30.3818 19.8946 30.2914 20.0002 30.2225C20.1056 30.1537 20.2538 30.119 20.4447 30.119C20.5446 30.119 20.6427 30.1278 20.7392 30.1453C20.8362 30.1628 20.9275 30.1846 21.0141 30.2111C21.1005 30.2372 21.1794 30.2663 21.2505 30.2981C21.3214 30.3297 21.3815 30.3598 21.4303 30.3881L21.73 29.8532C21.5636 29.7483 21.3693 29.6666 21.1472 29.6087C20.9252 29.5509 20.689 29.5217 20.4381 29.5217C20.2337 29.5217 20.0506 29.5452 19.8886 29.5922C19.7266 29.6393 19.5885 29.7061 19.4741 29.7925C19.3598 29.879 19.2719 29.9844 19.2112 30.1092C19.15 30.2339 19.1196 30.3739 19.1196 30.5293C19.1196 30.7833 19.2112 30.9883 19.3943 31.1449C19.5772 31.3014 19.8465 31.4037 20.2015 31.4517L20.5344 31.4943C20.7254 31.5206 20.8655 31.5628 20.9542 31.6206C21.0428 31.6787 21.0873 31.7526 21.0873 31.8423C21.0873 31.9606 21.0263 32.0539 20.9041 32.1228C20.782 32.1918 20.6012 32.2263 20.3615 32.2263C20.2304 32.2263 20.1135 32.2177 20.0101 32.2C19.907 32.1825 19.8126 32.159 19.7272 32.1295C19.6417 32.1 19.565 32.0659 19.4974 32.0278C19.4296 31.9895 19.367 31.9486 19.3093 31.9048L18.9863 32.42C19.1016 32.5054 19.2227 32.5742 19.3492 32.6268C19.4757 32.6793 19.6001 32.7203 19.722 32.7498C19.8442 32.7796 19.9597 32.7991 20.0684 32.8091C20.1771 32.8189 20.2726 32.8238 20.3548 32.8238C20.5834 32.8238 20.7882 32.7985 20.969 32.7482C21.1501 32.6979 21.3022 32.6272 21.4254 32.5365C21.5487 32.4457 21.6428 32.3375 21.7085 32.2116C21.7738 32.0857 21.8066 31.9474 21.8066 31.7964C21.8066 31.5273 21.7089 31.3177 21.5136 31.1678Z" fill="#BDBFC1"/>
<path d="M28.0292 29.9761C27.8972 29.8306 27.7385 29.718 27.5531 29.6379C27.3679 29.5582 27.1642 29.5183 26.9422 29.5183C26.7068 29.5183 26.4921 29.5582 26.298 29.6379C26.1036 29.718 25.9366 29.8306 25.7969 29.9761C25.657 30.1217 25.5481 30.2963 25.4706 30.4996C25.3929 30.7031 25.354 30.9276 25.354 31.1727C25.354 31.422 25.3939 31.6484 25.4739 31.8519C25.5538 32.0554 25.6659 32.2296 25.8101 32.3738C25.9544 32.5182 26.1263 32.6299 26.3263 32.7087C26.526 32.7873 26.7459 32.8269 26.9854 32.8269C27.2276 32.8269 27.4578 32.7941 27.6765 32.7283C27.8951 32.6627 28.102 32.5478 28.2975 32.3838L27.9511 31.8947C27.818 31.9998 27.6709 32.0813 27.5099 32.1391C27.3489 32.1972 27.1885 32.2261 27.0288 32.2261C26.9155 32.2261 26.8068 32.2108 26.7025 32.1801C26.5981 32.1497 26.5037 32.102 26.4193 32.0373C26.335 31.9729 26.2629 31.8904 26.203 31.7897C26.143 31.6891 26.1019 31.5675 26.08 31.4253H28.4372C28.4417 31.386 28.445 31.3444 28.4473 31.3006C28.4494 31.2568 28.4504 31.213 28.4504 31.1692C28.4504 30.9242 28.4134 30.7003 28.339 30.4982C28.2646 30.2957 28.1613 30.1217 28.0292 29.9761ZM26.0831 30.9034C26.1009 30.7895 26.1319 30.6852 26.1765 30.5899C26.2207 30.4947 26.278 30.4128 26.3478 30.3438C26.4177 30.2747 26.5012 30.2217 26.5975 30.1845C26.6942 30.1474 26.8046 30.1286 26.929 30.1286C27.1509 30.1286 27.3318 30.1967 27.4717 30.3322C27.6116 30.468 27.7002 30.6583 27.7378 30.9034H26.0831Z" fill="#BDBFC1"/>
<path d="M37.2749 29.9812C37.1637 29.841 37.0262 29.7287 36.8617 29.6446C36.6974 29.5605 36.5011 29.5183 36.2725 29.5183C36.0483 29.5183 35.8398 29.5593 35.6466 29.6414C35.4533 29.7235 35.2847 29.8377 35.1405 29.9842C34.9962 30.1309 34.8827 30.3055 34.8007 30.508C34.7187 30.7103 34.6777 30.9317 34.6777 31.1727C34.6777 31.4133 34.7187 31.6347 34.8007 31.8372C34.8827 32.0395 34.9962 32.2141 35.1405 32.3608C35.2847 32.5074 35.4533 32.6217 35.6466 32.7038C35.8398 32.7857 36.0483 32.8269 36.2725 32.8269C36.5011 32.8269 36.6974 32.7851 36.8617 32.7022C37.0262 32.6191 37.1637 32.5074 37.2749 32.3673V32.7448H37.9707V29.6002H37.2749V29.9812ZM37.2482 31.573C37.2015 31.6954 37.136 31.8018 37.0517 31.8914C36.9673 31.981 36.8663 32.0515 36.7487 32.1031C36.6309 32.1546 36.5001 32.1801 36.3556 32.1801C36.2048 32.1801 36.07 32.1534 35.9512 32.0998C35.8324 32.0462 35.7319 31.9741 35.6499 31.8832C35.5676 31.7924 35.5046 31.6858 35.4602 31.563C35.4157 31.4406 35.3934 31.3104 35.3934 31.1727C35.3934 31.0346 35.4157 30.9044 35.4602 30.782C35.5046 30.6593 35.5676 30.5528 35.6499 30.4619C35.7319 30.3711 35.8324 30.2987 35.9512 30.2452C36.07 30.1916 36.2048 30.1649 36.3556 30.1649C36.5001 30.1649 36.6309 30.1906 36.7487 30.2419C36.8663 30.2935 36.9673 30.3639 37.0517 30.4538C37.136 30.5434 37.2015 30.6495 37.2482 30.7722C37.2947 30.8946 37.318 31.0283 37.318 31.1727C37.318 31.3171 37.2947 31.4504 37.2482 31.573Z" fill="#BDBFC1"/>
<path d="M24.4973 32.1181C24.3851 32.1597 24.2748 32.1803 24.1659 32.1803C24.0948 32.1803 24.0288 32.1695 23.9679 32.1477C23.9067 32.1257 23.8536 32.0914 23.8081 32.0442C23.7625 31.9971 23.7265 31.9364 23.6996 31.8621C23.6732 31.7877 23.6597 31.6979 23.6597 31.5927V30.2242H24.7774V29.6004H23.6597V28.6484H22.9606V29.6004H22.3247V30.2242H22.9606V31.606C22.9606 32.024 23.061 32.332 23.2621 32.53C23.4628 32.7281 23.7441 32.8271 24.1059 32.8271C24.308 32.8271 24.4895 32.7965 24.6505 32.7352C24.7569 32.6946 24.8555 32.6484 24.9477 32.5973L24.71 32.0228C24.6426 32.0584 24.5719 32.0904 24.4973 32.1181Z" fill="#BDBFC1"/>
<path d="M30.7801 29.5183C30.5848 29.5183 30.4083 29.5531 30.2506 29.6232C30.0929 29.6935 29.9611 29.862 29.8546 30.0127V29.6002H29.2227V32.7448H29.861V31.015C29.861 30.8816 29.88 30.7622 29.9177 30.6573C29.9555 30.5522 30.0076 30.4636 30.0743 30.3914C30.1409 30.3191 30.2206 30.2645 30.314 30.227C30.4072 30.19 30.5093 30.1714 30.6203 30.1714C30.7046 30.1714 30.7956 30.1814 30.8933 30.201C30.9431 30.2111 30.9896 30.2234 31.033 30.238L31.2389 29.5815C31.1831 29.5643 31.1264 29.5493 31.0681 29.5395C30.9826 29.5252 30.8867 29.5183 30.7801 29.5183Z" fill="#BDBFC1"/>
<path d="M40.4541 29.5183C40.2586 29.5183 40.0821 29.5531 39.9244 29.6232C39.7669 29.6935 39.6349 29.862 39.5285 30.0127V29.6002H38.8965V32.7448H39.5351V31.015C39.5351 30.8816 39.5539 30.7622 39.5917 30.6573C39.6293 30.5522 39.6816 30.4636 39.7479 30.3914C39.8147 30.3191 39.8945 30.2645 39.9879 30.227C40.0809 30.19 40.183 30.1714 40.2941 30.1714C40.3785 30.1714 40.4696 30.1814 40.5671 30.201C40.6172 30.2111 40.6634 30.2234 40.7068 30.238L40.9127 29.5815C40.8569 29.5643 40.8005 29.5493 40.742 29.5395C40.6566 29.5252 40.5603 29.5183 40.4541 29.5183Z" fill="#BDBFC1"/>
<path d="M43.7045 28.3223V29.9813C43.5936 29.8412 43.4557 29.7289 43.2914 29.6448C43.1273 29.5607 42.9308 29.5185 42.7022 29.5185C42.478 29.5185 42.2695 29.5594 42.0763 29.6415C41.883 29.7236 41.7144 29.8379 41.5701 29.9844C41.4259 30.1311 41.3126 30.3056 41.2304 30.5081C41.1483 30.7104 41.1074 30.9319 41.1074 31.1729C41.1074 31.4134 41.1483 31.6349 41.2304 31.8374C41.3126 32.0397 41.4259 32.2143 41.5701 32.3609C41.7144 32.5076 41.883 32.6219 42.0763 32.704C42.2695 32.7859 42.478 32.827 42.7022 32.827C42.9308 32.827 43.1273 32.7853 43.2914 32.7024C43.4557 32.6192 43.5936 32.5076 43.7045 32.3675V32.7449H44.4004V28.3223H43.7045ZM43.6779 31.5732C43.6312 31.6956 43.5659 31.8019 43.4813 31.8916C43.397 31.9812 43.296 32.0517 43.1784 32.1032C43.0606 32.1548 42.9296 32.1802 42.7855 32.1802C42.6347 32.1802 42.4997 32.1535 42.3809 32.1C42.262 32.0464 42.1616 31.9743 42.0796 31.8834C41.9975 31.7926 41.9343 31.686 41.8898 31.5632C41.8454 31.4407 41.8233 31.3106 41.8233 31.1729C41.8233 31.0347 41.8454 30.9046 41.8898 30.7821C41.9343 30.6595 41.9975 30.553 42.0796 30.4621C42.1616 30.3712 42.262 30.2989 42.3809 30.2453C42.4997 30.1918 42.6347 30.1651 42.7855 30.1651C42.9296 30.1651 43.0606 30.1907 43.1784 30.2421C43.296 30.2936 43.397 30.3641 43.4813 30.4539C43.5659 30.5436 43.6312 30.6497 43.6779 30.7724C43.7246 30.8948 43.7477 31.0284 43.7477 31.1729C43.7477 31.3173 43.7246 31.4505 43.6779 31.5732Z" fill="#BDBFC1"/>
<path d="M32.4457 30.4454C32.5343 30.3568 32.6399 30.2879 32.7619 30.2389C32.8842 30.1896 33.0163 30.1649 33.1582 30.1649C33.3145 30.1649 33.4598 30.1894 33.5941 30.2389C33.7239 30.2861 33.8363 30.3527 33.932 30.4371L34.267 29.8879C34.1413 29.7888 33.9998 29.708 33.8425 29.6446C33.6325 29.5605 33.4046 29.5183 33.1582 29.5183C32.9117 29.5183 32.6837 29.5605 32.474 29.6446C32.2642 29.7287 32.0834 29.8449 31.9313 29.9926C31.7792 30.1403 31.6599 30.3146 31.5734 30.5159C31.4866 30.7174 31.4434 30.9362 31.4434 31.1727C31.4434 31.4088 31.4866 31.6278 31.5734 31.8291C31.6599 32.0303 31.7792 32.2049 31.9313 32.3524C32.0834 32.5003 32.2642 32.6162 32.474 32.7004C32.6837 32.7847 32.9117 32.8269 33.1582 32.8269C33.4046 32.8269 33.6325 32.7847 33.8425 32.7004C33.9998 32.6374 34.1413 32.5561 34.267 32.4573L33.932 31.9079C33.8363 31.9924 33.7239 32.0589 33.5941 32.1065C33.4598 32.1556 33.3145 32.1801 33.1582 32.1801C33.0163 32.1801 32.8842 32.1556 32.7619 32.1065C32.6399 32.0572 32.5343 31.9882 32.4457 31.8995C32.3568 31.8109 32.287 31.705 32.2359 31.5811C32.1849 31.4577 32.1594 31.3214 32.1594 31.1727C32.1594 31.0238 32.1849 30.8875 32.2359 30.7638C32.287 30.6404 32.3568 30.534 32.4457 30.4454Z" fill="#BDBFC1"/>
<path d="M45.8663 32.2839C45.9126 32.2839 45.9562 32.2927 45.9967 32.3094C46.0372 32.3263 46.0726 32.3493 46.1027 32.3785C46.1329 32.4074 46.1567 32.4412 46.1742 32.4801C46.1916 32.5188 46.2003 32.5604 46.2003 32.6046C46.2003 32.6486 46.1916 32.6899 46.1742 32.7289C46.1567 32.768 46.1329 32.802 46.1027 32.8313C46.0726 32.8607 46.0372 32.8837 45.9967 32.9006C45.9562 32.9175 45.9126 32.9261 45.8663 32.9261C45.819 32.9261 45.7748 32.9175 45.7336 32.9006C45.6927 32.8837 45.6572 32.8607 45.627 32.8313C45.5968 32.802 45.5731 32.768 45.5559 32.7289C45.539 32.6899 45.5303 32.6486 45.5303 32.6046C45.5303 32.5604 45.539 32.5188 45.5559 32.4801C45.5731 32.4412 45.5968 32.4074 45.627 32.3785C45.6572 32.3493 45.6927 32.3263 45.7336 32.3094C45.7748 32.2927 45.819 32.2839 45.8663 32.2839ZM45.8663 32.8368C45.8988 32.8368 45.9291 32.8305 45.9577 32.8185C45.9862 32.8065 46.0108 32.7898 46.0318 32.7688C46.0527 32.748 46.0692 32.7236 46.0814 32.6954C46.0934 32.6673 46.0994 32.6372 46.0994 32.6046C46.0994 32.5728 46.0934 32.5427 46.0814 32.5143C46.0692 32.486 46.0527 32.4616 46.0318 32.4408C46.0108 32.4202 45.9862 32.4037 45.9577 32.3915C45.9291 32.3795 45.8988 32.3734 45.8663 32.3734C45.8328 32.3734 45.802 32.3795 45.7733 32.3915C45.7444 32.4037 45.7194 32.4202 45.6983 32.4408C45.677 32.4616 45.6603 32.486 45.6483 32.5143C45.6363 32.5427 45.6301 32.5728 45.6301 32.6046C45.6301 32.6372 45.6363 32.6673 45.6483 32.6954C45.6603 32.7236 45.677 32.748 45.6983 32.7688C45.7194 32.7898 45.7444 32.8065 45.7733 32.8185C45.802 32.8305 45.8328 32.8368 45.8663 32.8368ZM45.8851 32.4626C45.9248 32.4626 45.9548 32.4712 45.9754 32.4887C45.9959 32.506 46.006 32.5292 46.006 32.5581C46.006 32.5812 45.9988 32.5999 45.9839 32.615C45.9692 32.63 45.9477 32.6398 45.9198 32.6447L46.0097 32.7468H45.9126L45.8322 32.6476H45.8229V32.7468H45.7417V32.4626H45.8851ZM45.8229 32.5319V32.5838H45.8837C45.8963 32.5838 45.9058 32.582 45.9126 32.5783C45.9194 32.5744 45.9227 32.5677 45.9227 32.5581C45.9227 32.5492 45.9194 32.5425 45.9126 32.5384C45.9058 32.5341 45.8963 32.5319 45.8837 32.5319H45.8229Z" fill="#BDBFC1"/>
<path d="M22.2812 14.9018C22.2812 11.1344 24.0664 7.78025 26.8462 5.60966C24.7965 4.00906 22.207 3.05078 19.3892 3.05078C12.7498 3.05078 7.36768 8.35656 7.36768 14.9018C7.36768 21.4467 12.7498 26.7523 19.3892 26.7523C22.207 26.7523 24.7965 25.794 26.8462 24.1937C24.0664 22.0229 22.2812 18.6687 22.2812 14.9018Z" fill="#BDBFC1"/>
<path d="M22.2812 14.9017C22.2812 18.6686 24.0664 22.0228 26.8462 24.1936C29.6256 22.0228 31.4109 18.6686 31.4109 14.9017C31.4109 11.1344 29.6256 7.78021 26.8462 5.60962C24.0664 7.78021 22.2812 11.1344 22.2812 14.9017Z" fill="#BDBFC1"/>
<path d="M45.5096 21.3117V20.9647H45.3672V20.8694H45.7572V20.9647H45.6146V21.3117H45.5096ZM46.2633 21.3117V21.0049L46.1622 21.2695H46.0506L45.9498 21.0057V21.3117H45.8448V20.8694H45.9952L46.1068 21.1525L46.2176 20.8694H46.3685V21.3117H46.2633Z" fill="#F9A233"/>
<path d="M34.3028 3.05078C31.4849 3.05078 28.8959 4.00906 26.8462 5.60966C29.6256 7.78025 31.4109 11.1344 31.4109 14.9018C31.4109 18.6687 29.6256 22.0229 26.8462 24.1937C28.8959 25.794 31.4849 26.7523 34.3028 26.7523C40.9422 26.7523 46.3247 21.4467 46.3247 14.9018C46.3247 8.35656 40.9422 3.05078 34.3028 3.05078Z" fill="#D2D3D5"/>
<path d="M6 1.5H48V0.5H6V1.5ZM52.5 6V30H53.5V6H52.5ZM48 34.5H6V35.5H48V34.5ZM1.5 30V6H0.5V30H1.5ZM6 34.5C3.51472 34.5 1.5 32.4853 1.5 30H0.5C0.5 33.0376 2.96243 35.5 6 35.5V34.5ZM52.5 30C52.5 32.4853 50.4853 34.5 48 34.5V35.5C51.0376 35.5 53.5 33.0376 53.5 30H52.5ZM48 1.5C50.4853 1.5 52.5 3.51472 52.5 6H53.5C53.5 2.96243 51.0376 0.5 48 0.5V1.5ZM6 0.5C2.96243 0.5 0.5 2.96243 0.5 6H1.5C1.5 3.51472 3.51472 1.5 6 1.5V0.5Z" fill="#BDBDBD"/>
</svg>
