<svg width="54" height="36" viewBox="0 0 54 36" fill="none" xmlns="http://www.w3.org/2000/svg">
<path d="M1 6C1 3.23858 3.23858 1 6 1H48C50.7614 1 53 3.23858 53 6V30C53 32.7614 50.7614 35 48 35H6C3.23858 35 1 32.7614 1 30V6Z" fill="white"/>
<path d="M48.4412 1H5.55883C3.04106 1 1 2.84237 1 5.11504V30.885C1 33.1576 3.04106 35 5.55883 35H48.4412C50.9589 35 53 33.1576 53 30.885V5.11504C53 2.84237 50.9589 1 48.4412 1Z" fill="#BDBFC1" stroke="#BDBFC1" stroke-width="0.0847" stroke-miterlimit="22.9256"/>
<path fill-rule="evenodd" clip-rule="evenodd" d="M16.2192 11.5205C19.7886 11.5205 22.7801 13.9549 23.5802 17.2309L20.5287 18.5468L20.5281 18.5404L17.4056 19.8926L9.91536 23.1208C9.11455 21.9373 8.64697 20.5145 8.64697 18.9847C8.64697 14.8621 12.0369 11.5205 16.2192 11.5205ZM19.4696 16.1614L11.9051 19.375C11.8935 19.2464 11.887 19.1165 11.887 18.9847C11.887 16.6261 13.8264 14.7144 16.2192 14.7144C17.5134 14.7144 18.6752 15.274 19.4696 16.1614Z" fill="#FEFEFE"/>
<path fill-rule="evenodd" clip-rule="evenodd" d="M21.5102 24.3239C18.799 26.8608 15.2121 27.1097 12.0605 25.2235L13.8411 22.5548C15.6345 23.6116 17.4363 23.4403 19.2459 22.0398L21.5102 24.3239Z" fill="#FEFEFE"/>
<path fill-rule="evenodd" clip-rule="evenodd" d="M24.5926 22.4765L24.5732 8.36035H27.2863V22.0958C27.2863 22.227 27.3031 22.3435 27.4788 22.4103L29.8386 23.3149L28.7749 26.0409L26.0102 24.8873C24.962 24.45 24.5946 23.8166 24.5926 22.4765Z" fill="#FEFEFE"/>
<path fill-rule="evenodd" clip-rule="evenodd" d="M34.8083 22.239C33.7918 21.4598 33.1363 20.2433 33.1363 18.8752C33.1363 17.6593 33.6549 16.5624 34.4841 15.7864L32.732 12.9866C30.9702 14.3623 29.8394 16.4879 29.8394 18.8752C29.8394 21.4484 31.1523 23.7185 33.1537 25.072L34.8083 22.239Z" fill="#D2D3D5"/>
<path fill-rule="evenodd" clip-rule="evenodd" d="M35.9962 14.8661C36.4534 14.7038 36.9449 14.6153 37.4583 14.6153C39.3086 14.6153 40.8869 15.7618 41.5024 17.3737L44.8607 17.0974C44.0502 13.8074 41.0445 11.3647 37.4583 11.3647C36.445 11.3647 35.4789 11.5615 34.5947 11.9154L35.9962 14.8661Z" fill="#E6E7E8"/>
<path fill-rule="evenodd" clip-rule="evenodd" d="M41.7745 19.0813C41.6647 21.3381 39.7744 23.1352 37.4579 23.1352C37.0949 23.1352 36.7423 23.0907 36.4058 23.0073L35.0884 26.0133C35.8349 26.254 36.6306 26.3857 37.4579 26.3857C41.5608 26.3857 44.9042 23.1887 45.0688 19.1838L41.7745 19.0813Z" fill="#96989A"/>
<path d="M6 1.5H48V0.5H6V1.5ZM52.5 6V30H53.5V6H52.5ZM48 34.5H6V35.5H48V34.5ZM1.5 30V6H0.5V30H1.5ZM6 34.5C3.51472 34.5 1.5 32.4853 1.5 30H0.5C0.5 33.0376 2.96243 35.5 6 35.5V34.5ZM52.5 30C52.5 32.4853 50.4853 34.5 48 34.5V35.5C51.0376 35.5 53.5 33.0376 53.5 30H52.5ZM48 1.5C50.4853 1.5 52.5 3.51472 52.5 6H53.5C53.5 2.96243 51.0376 0.5 48 0.5V1.5ZM6 0.5C2.96243 0.5 0.5 2.96243 0.5 6H1.5C1.5 3.51472 3.51472 1.5 6 1.5V0.5Z" fill="#BDBDBD"/>
</svg>
