<svg width="54" height="36" viewBox="0 0 54 36" fill="none" xmlns="http://www.w3.org/2000/svg">
<path d="M48.4412 1H5.55883C3.04106 1 1 2.84237 1 5.11504V30.885C1 33.1576 3.04106 35 5.55883 35H48.4412C50.9589 35 53 33.1576 53 30.885V5.11504C53 2.84237 50.9589 1 48.4412 1Z" fill="black" stroke="black" stroke-width="0.0847" stroke-miterlimit="22.9256"/>
<path fill-rule="evenodd" clip-rule="evenodd" d="M16.2192 11.5205C19.7886 11.5205 22.7801 13.9549 23.5802 17.2309L20.5287 18.5468L20.5281 18.5404L17.4056 19.8926L9.91536 23.1208C9.11455 21.9373 8.64697 20.5145 8.64697 18.9847C8.64697 14.8621 12.0369 11.5205 16.2192 11.5205ZM19.4696 16.1614L11.9051 19.375C11.8935 19.2464 11.887 19.1165 11.887 18.9847C11.887 16.6261 13.8264 14.7144 16.2192 14.7144C17.5134 14.7144 18.6752 15.274 19.4696 16.1614Z" fill="#FEFEFE"/>
<path fill-rule="evenodd" clip-rule="evenodd" d="M21.5102 24.324C18.799 26.8609 15.2121 27.1098 12.0605 25.2236L13.8411 22.5549C15.6345 23.6117 17.4363 23.4404 19.2459 22.0399L21.5102 24.324Z" fill="#FEFEFE"/>
<path fill-rule="evenodd" clip-rule="evenodd" d="M24.5926 22.4766L24.5732 8.36041H27.2863V22.0959C27.2863 22.227 27.3031 22.3435 27.4788 22.4104L29.8386 23.315L28.7749 26.0409L26.0102 24.8874C24.962 24.4501 24.5946 23.8166 24.5926 22.4766Z" fill="#FEFEFE"/>
<path fill-rule="evenodd" clip-rule="evenodd" d="M34.8085 22.239C33.792 21.4598 33.1365 20.2432 33.1365 18.8752C33.1365 17.6593 33.6551 16.5624 34.4843 15.7863L32.7322 12.9865C30.9704 14.3623 29.8396 16.4879 29.8396 18.8752C29.8396 21.4483 31.1525 23.7185 33.1539 25.0719L34.8085 22.239Z" fill="#00A3DF"/>
<path fill-rule="evenodd" clip-rule="evenodd" d="M35.9964 14.8661C36.4536 14.7037 36.9451 14.6152 37.4585 14.6152C39.3088 14.6152 40.8872 15.7618 41.5026 17.3737L44.8609 17.0974C44.0504 13.8074 41.0448 11.3647 37.4585 11.3647C36.4452 11.3647 35.4791 11.5614 34.595 11.9154L35.9964 14.8661Z" fill="#FFF100"/>
<path fill-rule="evenodd" clip-rule="evenodd" d="M41.7745 19.0814C41.6647 21.3382 39.7744 23.1353 37.4579 23.1353C37.0949 23.1353 36.7423 23.0908 36.4058 23.0074L35.0884 26.0135C35.8349 26.2541 36.6306 26.3859 37.4579 26.3859C41.5608 26.3859 44.9042 23.1888 45.0688 19.1839L41.7745 19.0814Z" fill="#EE4023"/>
</svg>
