<svg width="54" height="36" viewBox="0 0 54 36" fill="none" xmlns="http://www.w3.org/2000/svg">
<path d="M1 6C1 3.23858 3.23858 1 6 1H48C50.7614 1 53 3.23858 53 6V30C53 32.7614 50.7614 35 48 35H6C3.23858 35 1 32.7614 1 30V6Z" fill="white"/>
<path d="M48.4412 1H5.55883C3.04106 1 1 2.84237 1 5.11504V30.885C1 33.1576 3.04106 35 5.55883 35H48.4412C50.9589 35 53 33.1576 53 30.885V5.11504C53 2.84237 50.9589 1 48.4412 1Z" fill="#BDBFC1" stroke="#BDBFC1" stroke-width="0.0847" stroke-miterlimit="22.9256"/>
<path fill-rule="evenodd" clip-rule="evenodd" d="M11.7183 24.5316V18.1929H20.0009L20.8895 19.1319L21.8079 18.1929H51.8727V24.0942C51.8727 24.0942 51.0861 24.5252 50.1767 24.5316H33.5295L32.5272 23.5321V24.5316H29.2438V22.8261C29.2438 22.8261 28.7956 23.0642 27.8263 23.0642H26.7083V24.5316H21.7375L20.8501 23.5729L19.9486 24.5316H11.7183Z" fill="#FEFEFE"/>
<path fill-rule="evenodd" clip-rule="evenodd" d="M2.04541 14.3629L3.91441 10.4771H7.14673L8.20716 12.6536V10.4771H12.2248L12.8564 12.0501L13.4686 10.4771H31.5038V11.2677C31.5038 11.2677 32.4525 10.4771 34.0102 10.4771L39.8626 10.4949L40.9043 12.6434V10.4771H44.2671L45.1925 11.7108V10.4771H48.5857V17.4581H45.1925L44.3052 16.2199V17.4581H39.3653L38.8687 16.3574H37.5409L37.052 17.4581H33.7021C32.3608 17.4581 31.5038 16.6833 31.5038 16.6833V17.4581H26.4528L25.4505 16.3574V17.4581H6.66818L6.17154 16.3574H4.84762L4.35486 17.4581H2.04541V14.3629Z" fill="#FEFEFE"/>
<path fill-rule="evenodd" clip-rule="evenodd" d="M4.57596 11.3379L2.05469 16.5651H3.69571L4.1607 15.5185H6.86539L7.32779 16.5651H9.00498L6.48694 11.3379H4.57596ZM5.50852 12.5544L6.33259 14.3834H4.68188L5.50852 12.5544Z" fill="#BDBFC1"/>
<path fill-rule="evenodd" clip-rule="evenodd" d="M9.17822 16.5639V11.3367L11.5103 11.3443L12.8665 14.7145L14.1911 11.3367H16.5044V16.5645H15.039V12.7124L13.4858 16.5645H12.2007L10.6436 12.7124V16.5645L9.17822 16.5639Z" fill="#BDBFC1"/>
<path fill-rule="evenodd" clip-rule="evenodd" d="M17.5068 16.5639V11.3367H22.2878V12.5061H18.9871V13.3999H22.211V14.5006H18.9871V15.4294H22.2878V16.5639H17.5068Z" fill="#BDBFC1"/>
<path fill-rule="evenodd" clip-rule="evenodd" d="M23.1372 11.3379V16.5651H24.6026V14.7081H25.2193L26.976 16.5651H28.7668L26.8384 14.6393C27.6295 14.5795 28.4458 13.9735 28.4458 13.0338C28.4458 11.9338 27.4778 11.3379 26.3973 11.3379H23.1372ZM24.6026 12.5067H26.2772C26.6789 12.5067 26.9708 12.7874 26.9708 13.0574C26.9708 13.4043 26.5923 13.6074 26.2991 13.6074H24.6026V12.5067Z" fill="#BDBFC1"/>
<path fill-rule="evenodd" clip-rule="evenodd" d="M30.5398 16.5639H29.0435V11.3367H30.5398V16.5639Z" fill="#BDBFC1"/>
<path fill-rule="evenodd" clip-rule="evenodd" d="M34.0869 16.5639H33.764C32.2011 16.5639 31.2524 15.4664 31.2524 13.9722C31.2524 12.4405 32.1908 11.3367 34.1638 11.3367H35.7835V12.5749H34.105C33.3036 12.5749 32.7372 13.1325 32.7372 13.985C32.7372 14.9972 33.3849 15.4224 34.3181 15.4224H34.7037L34.0869 16.5639Z" fill="#BDBFC1"/>
<path fill-rule="evenodd" clip-rule="evenodd" d="M37.2745 11.3379L34.7539 16.5651H36.3956L36.8606 15.5185H39.5646L40.027 16.5651H41.7042L39.1862 11.3379H37.2745ZM38.2071 12.5544L39.0318 14.3834H37.3804L38.2071 12.5544Z" fill="#BDBFC1"/>
<path fill-rule="evenodd" clip-rule="evenodd" d="M41.876 16.5639V11.3367H43.7385L46.1177 14.6209V11.3367H47.5824V16.5639H45.7799L43.3413 13.1943V16.5639H41.876Z" fill="#BDBFC1"/>
<path fill-rule="evenodd" clip-rule="evenodd" d="M12.7197 23.7199V18.9734H17.4981V20.0353H14.1993V20.8469H17.4213V21.8464H14.1993V22.6893H17.4981V23.7199H12.7197Z" fill="#BDBFC1"/>
<path fill-rule="evenodd" clip-rule="evenodd" d="M36.1338 23.7199V18.9734H40.9122V20.0353H37.614V20.8469H40.8198V21.8464H37.614V22.6893H40.9122V23.7199H36.1338Z" fill="#BDBFC1"/>
<path fill-rule="evenodd" clip-rule="evenodd" d="M17.6835 23.7198L20.0104 21.3758L17.6279 18.9739H19.473L20.8919 20.4584L22.3153 18.9739H24.0874L21.7373 21.3465L24.068 23.7198H22.2229L20.846 22.2575L19.5021 23.7198H17.6835Z" fill="#BDBFC1"/>
<path fill-rule="evenodd" clip-rule="evenodd" d="M24.2422 18.9746V23.7205H25.7457V22.222H27.2866C28.5911 22.222 29.5799 21.6611 29.5799 20.5706C29.5799 19.6672 28.8042 18.9746 27.4771 18.9746H24.2422ZM25.7457 20.0479H27.3686C27.7897 20.0479 28.0913 20.2567 28.0913 20.5941C28.0913 20.9112 27.7916 21.1404 27.3641 21.1404H25.7457V20.0479Z" fill="#BDBFC1"/>
<path fill-rule="evenodd" clip-rule="evenodd" d="M30.2148 18.9734V23.7199H31.6796V22.0336H32.2957L34.0517 23.7199H35.8412L33.9147 21.9712C34.7052 21.9171 35.5209 21.367 35.5209 20.5133C35.5209 19.5145 34.5535 18.974 33.4736 18.974H30.2148V18.9734ZM31.6796 20.0353H33.3529C33.7546 20.0353 34.0465 20.2899 34.0465 20.5344C34.0465 20.8501 33.6687 21.0347 33.3748 21.0347H31.6796V20.0353Z" fill="#BDBFC1"/>
<path fill-rule="evenodd" clip-rule="evenodd" d="M41.5901 23.7198V22.6891H44.5209C44.9549 22.6891 45.1428 22.4994 45.1428 22.2912C45.1428 22.0914 44.9555 21.8902 44.5209 21.8902H43.1969C42.0461 21.8902 41.4048 21.3217 41.4048 20.4686C41.4048 19.7073 41.9918 18.9739 43.7026 18.9739H46.5539L45.9371 20.0415H43.4714C42.9993 20.0415 42.8546 20.2414 42.8546 20.433C42.8546 20.6297 43.0342 20.8468 43.3939 20.8468H44.7811C46.0644 20.8468 46.6217 21.4369 46.6217 22.2091C46.6217 23.0393 46.0011 23.7198 44.7114 23.7198H41.5901Z" fill="#BDBFC1"/>
<path fill-rule="evenodd" clip-rule="evenodd" d="M46.9651 23.7198V22.6891H49.7725C50.2059 22.6891 50.3938 22.4994 50.3938 22.2912C50.3938 22.0914 50.2065 21.8902 49.7725 21.8902H48.5719C47.4204 21.8902 46.7798 21.3217 46.7798 20.4686C46.7798 19.7073 47.3668 18.9739 49.0776 18.9739H51.8727L51.256 20.0415H48.8464C48.375 20.0415 48.2296 20.2414 48.2296 20.433C48.2296 20.6297 48.4092 20.8468 48.7696 20.8468H50.0321C51.3154 20.8468 51.8727 21.4369 51.8727 22.2091C51.8727 23.0393 51.2521 23.7198 49.9624 23.7198H46.9651Z" fill="#BDBFC1"/>
<path d="M6 1.5H48V0.5H6V1.5ZM52.5 6V30H53.5V6H52.5ZM48 34.5H6V35.5H48V34.5ZM1.5 30V6H0.5V30H1.5ZM6 34.5C3.51472 34.5 1.5 32.4853 1.5 30H0.5C0.5 33.0376 2.96243 35.5 6 35.5V34.5ZM52.5 30C52.5 32.4853 50.4853 34.5 48 34.5V35.5C51.0376 35.5 53.5 33.0376 53.5 30H52.5ZM48 1.5C50.4853 1.5 52.5 3.51472 52.5 6H53.5C53.5 2.96243 51.0376 0.5 48 0.5V1.5ZM6 0.5C2.96243 0.5 0.5 2.96243 0.5 6H1.5C1.5 3.51472 3.51472 1.5 6 1.5V0.5Z" fill="#BDBDBD"/>
</svg>
