<svg width="54" height="36" viewBox="0 0 54 36" fill="none" xmlns="http://www.w3.org/2000/svg">
<path d="M1 6C1 3.23858 3.23858 1 6 1H48C50.7614 1 53 3.23858 53 6V30C53 32.7614 50.7614 35 48 35H6C3.23858 35 1 32.7614 1 30V6Z" fill="white"/>
<path d="M19.6606 24.7988L21.8988 11.8533H25.4782L23.2388 24.7988H19.6606Z" fill="#D2D3D5"/>
<path d="M36.2204 12.1719C35.5113 11.9097 34.4001 11.6282 33.0124 11.6282C29.4756 11.6282 26.9841 13.384 26.9628 15.9005C26.9429 17.7606 28.7415 18.7984 30.0993 19.4175C31.4926 20.052 31.9609 20.4568 31.9543 21.0234C31.9454 21.891 30.8416 22.2876 29.8128 22.2876C28.3801 22.2876 27.6189 22.0914 26.4436 21.6078L25.9824 21.4023L25.48 24.3001C26.3161 24.6615 27.862 24.9746 29.4673 24.9909C33.2298 24.9909 35.6725 23.2553 35.7002 20.568C35.7137 19.0954 34.7601 17.9745 32.6952 17.0507C31.4438 16.452 30.6777 16.0523 30.6856 15.4458C30.6856 14.9076 31.3343 14.3323 32.7355 14.3323C33.9062 14.3144 34.7539 14.5662 35.4146 14.8283L35.7354 14.9777L36.2204 12.1719Z" fill="#D2D3D5"/>
<path d="M45.3992 11.8655H42.6333C41.7764 11.8655 41.1354 12.0961 40.7588 12.9391L35.4429 24.8031H39.2016C39.2016 24.8031 39.8162 23.2078 39.9553 22.8576C40.3662 22.8576 44.0175 22.8631 44.5395 22.8631C44.6465 23.3162 44.9751 24.8031 44.9751 24.8031H48.2964L45.3992 11.8655ZM40.9853 20.2095C41.2815 19.4639 42.4115 16.5909 42.4115 16.5909C42.3904 16.6253 42.7052 15.8414 42.8862 15.3553L43.128 16.4715C43.128 16.4715 43.8135 19.5617 43.9567 20.2095H40.9853Z" fill="#D2D3D5"/>
<path d="M16.658 11.8628L13.1534 20.6908L12.7799 18.8967C12.1277 16.8286 10.095 14.5881 7.82275 13.4662L11.027 24.7878L14.8141 24.7835L20.4494 11.8628H16.658Z" fill="#D2D3D5"/>
<path d="M9.90269 11.8547H4.13063L4.08496 12.124C8.57551 13.1956 11.5469 15.7852 12.78 18.8966L11.525 12.9475C11.3084 12.1279 10.6799 11.8833 9.90269 11.8547Z" fill="#D2D3D5"/>
<path d="M48.441 1H5.55896C3.04111 1 1 2.84219 1 5.11466V30.8853C1 33.1578 3.04111 35 5.55896 35H48.441C50.9589 35 53 33.1578 53 30.8853V5.11466C53 2.84219 50.9589 1 48.441 1Z" stroke="#BDBFC1" stroke-width="0.0847" stroke-miterlimit="22.9256"/>
<path d="M6 1.5H48V0.5H6V1.5ZM52.5 6V30H53.5V6H52.5ZM48 34.5H6V35.5H48V34.5ZM1.5 30V6H0.5V30H1.5ZM6 34.5C3.51472 34.5 1.5 32.4853 1.5 30H0.5C0.5 33.0376 2.96243 35.5 6 35.5V34.5ZM52.5 30C52.5 32.4853 50.4853 34.5 48 34.5V35.5C51.0376 35.5 53.5 33.0376 53.5 30H52.5ZM48 1.5C50.4853 1.5 52.5 3.51472 52.5 6H53.5C53.5 2.96243 51.0376 0.5 48 0.5V1.5ZM6 0.5C2.96243 0.5 0.5 2.96243 0.5 6H1.5C1.5 3.51472 3.51472 1.5 6 1.5V0.5Z" fill="#BDBDBD"/>
</svg>
