<svg width="54" height="36" viewBox="0 0 54 36" fill="none" xmlns="http://www.w3.org/2000/svg">
<path d="M19.6602 24.7988L21.8983 11.853H25.4777L23.2383 24.7988H19.6602Z" fill="#0A60A3"/>
<path d="M36.2204 12.1719C35.5113 11.9095 34.4001 11.6282 33.0124 11.6282C29.4756 11.6282 26.9841 13.384 26.9628 15.9003C26.9429 17.7604 28.7415 18.7982 30.0993 19.4175C31.4926 20.052 31.9609 20.4566 31.9543 21.0233C31.9454 21.891 30.8416 22.2874 29.8128 22.2874C28.3801 22.2874 27.6189 22.0912 26.4436 21.6078L25.9824 21.4021L25.48 24.3001C26.3161 24.6615 27.862 24.9746 29.4673 24.9909C33.2298 24.9909 35.6725 23.2553 35.7002 20.568C35.7137 19.0954 34.7601 17.9745 32.6952 17.0507C31.4438 16.4518 30.6777 16.0521 30.6856 15.4458C30.6856 14.9076 31.3343 14.3323 32.7355 14.3323C33.9062 14.3144 34.7539 14.566 35.4146 14.8283L35.7354 14.9777L36.2204 12.1719Z" fill="#0A60A3"/>
<path d="M45.3997 11.8655H42.6337C41.7769 11.8655 41.1359 12.0959 40.7593 12.9391L35.4434 24.8029H39.2021C39.2021 24.8029 39.8167 23.2078 39.9558 22.8574C40.3667 22.8574 44.018 22.8631 44.54 22.8631C44.647 23.3162 44.9756 24.8029 44.9756 24.8029H48.2969L45.3997 11.8655ZM40.9858 20.2095C41.282 19.4637 42.412 16.5907 42.412 16.5907C42.3909 16.6253 42.7057 15.8412 42.8867 15.3551L43.1285 16.4715C43.1285 16.4715 43.814 19.5617 43.9572 20.2095H40.9858Z" fill="#0A60A3"/>
<path d="M16.6584 11.8625L13.1539 20.6904L12.7804 18.8965C12.1282 16.8283 10.0955 14.5877 7.82324 13.466L11.0275 24.7875L14.8146 24.7832L20.4499 11.8625H16.6584Z" fill="#0A60A3"/>
<path d="M9.90269 11.8545H4.13063L4.08496 12.124C8.57551 13.1956 11.5469 15.785 12.78 18.8966L11.525 12.9474C11.3084 12.1279 10.6799 11.8832 9.90269 11.8545Z" fill="#FAA831"/>
<path d="M48.441 1H5.55896C3.04111 1 1 2.84219 1 5.11466V30.8853C1 33.1578 3.04111 35 5.55896 35H48.441C50.9589 35 53 33.1578 53 30.8853V5.11466C53 2.84219 50.9589 1 48.441 1Z" stroke="#4F4F4F" stroke-width="0.5" stroke-miterlimit="22.9256"/>
</svg>
