<svg width="54" height="36" viewBox="0 0 54 36" fill="none" xmlns="http://www.w3.org/2000/svg">
<path d="M48.4412 1H5.55883C3.04106 1 1 2.84237 1 5.11504V30.885C1 33.1576 3.04106 35 5.55883 35H48.4412C50.9589 35 53 33.1576 53 30.885V5.11504C53 2.84237 50.9589 1 48.4412 1Z" fill="#3977BB" stroke="#3977BB" stroke-width="0.0847" stroke-miterlimit="22.9256"/>
<path fill-rule="evenodd" clip-rule="evenodd" d="M11.7185 24.5316V18.1929H20.0011L20.8898 19.1319L21.8081 18.1929H51.8729V24.0942C51.8729 24.0942 51.0863 24.5252 50.177 24.5316H33.5297L32.5274 23.5321V24.5316H29.2441V22.8261C29.2441 22.8261 28.7959 23.0642 27.8265 23.0642H26.7086V24.5316H21.7377L20.8504 23.5729L19.9488 24.5316H11.7185V24.5316Z" fill="#FEFEFE"/>
<path fill-rule="evenodd" clip-rule="evenodd" d="M2.04541 14.363L3.91441 10.4771H7.14673L8.20716 12.6537V10.4771H12.2248L12.8564 12.0502L13.4686 10.4771H31.5038V11.2678C31.5038 11.2678 32.4525 10.4771 34.0102 10.4771L39.8626 10.495L40.9043 12.6435V10.4771H44.2671L45.1925 11.7109V10.4771H48.5857V17.4582H45.1925L44.3052 16.22V17.4582H39.3653L38.8687 16.3575H37.5409L37.052 17.4582H33.7021C32.3608 17.4582 31.5038 16.6834 31.5038 16.6834V17.4582H26.4528L25.4505 16.3575V17.4582H6.66818L6.17154 16.3575H4.84762L4.35486 17.4582H2.04541V14.363V14.363Z" fill="#FEFEFE"/>
<path fill-rule="evenodd" clip-rule="evenodd" d="M4.57621 11.3379L2.05493 16.5651H3.69596L4.16095 15.5185H6.86563L7.32804 16.5651H9.00523L6.48718 11.3379H4.57621V11.3379ZM5.50877 12.5544L6.33283 14.3834H4.68212L5.50877 12.5544Z" fill="#3977BB"/>
<path fill-rule="evenodd" clip-rule="evenodd" d="M9.17822 16.5638V11.3366L11.5103 11.3443L12.8665 14.7145L14.1911 11.3366H16.5044V16.5645H15.039V12.7124L13.4858 16.5645H12.2007L10.6436 12.7124V16.5645L9.17822 16.5638Z" fill="#3977BB"/>
<path fill-rule="evenodd" clip-rule="evenodd" d="M17.5066 16.5638V11.3366H22.2876V12.5061H18.9868V13.3999H22.2107V14.5006H18.9868V15.4294H22.2876V16.5638H17.5066Z" fill="#3977BB"/>
<path fill-rule="evenodd" clip-rule="evenodd" d="M23.137 11.3379V16.5651H24.6023V14.7081H25.2191L26.9757 16.5651H28.7666L26.8381 14.6393C27.6293 14.5795 28.4456 13.9735 28.4456 13.0338C28.4456 11.9338 27.4775 11.3379 26.3971 11.3379H23.137V11.3379ZM24.6023 12.5067H26.2769C26.6786 12.5067 26.9705 12.7874 26.9705 13.0574C26.9705 13.4043 26.5921 13.6074 26.2989 13.6074H24.6023V12.5067V12.5067Z" fill="#3977BB"/>
<path fill-rule="evenodd" clip-rule="evenodd" d="M30.5398 16.5638H29.0435V11.3366H30.5398V16.5638Z" fill="#3977BB"/>
<path fill-rule="evenodd" clip-rule="evenodd" d="M34.0867 16.5638H33.7638C32.2009 16.5638 31.2522 15.4663 31.2522 13.9722C31.2522 12.4405 32.1906 11.3366 34.1635 11.3366H35.7833V12.5748H34.1048C33.3033 12.5748 32.7369 13.1325 32.7369 13.9849C32.7369 14.9971 33.3847 15.4224 34.3179 15.4224H34.7035L34.0867 16.5638V16.5638Z" fill="#3977BB"/>
<path fill-rule="evenodd" clip-rule="evenodd" d="M37.2745 11.3379L34.7539 16.5651H36.3956L36.8606 15.5185H39.5646L40.027 16.5651H41.7042L39.1862 11.3379H37.2745ZM38.2071 12.5544L39.0318 14.3834H37.3804L38.2071 12.5544V12.5544Z" fill="#3977BB"/>
<path fill-rule="evenodd" clip-rule="evenodd" d="M41.876 16.5638V11.3366H43.7385L46.1177 14.6209V11.3366H47.5824V16.5638H45.7799L43.3413 13.1943V16.5638H41.876Z" fill="#3977BB"/>
<path fill-rule="evenodd" clip-rule="evenodd" d="M12.7197 23.72V18.9734H17.4981V20.0353H14.1993V20.847H17.4213V21.8464H14.1993V22.6893H17.4981V23.72H12.7197Z" fill="#3977BB"/>
<path fill-rule="evenodd" clip-rule="evenodd" d="M36.1335 23.72V18.9734H40.912V20.0353H37.6138V20.847H40.8196V21.8464H37.6138V22.6893H40.912V23.72H36.1335Z" fill="#3977BB"/>
<path fill-rule="evenodd" clip-rule="evenodd" d="M17.6835 23.7199L20.0104 21.3759L17.6279 18.974H19.473L20.8919 20.4585L22.3153 18.974H24.0874L21.7373 21.3466L24.068 23.7199H22.2229L20.846 22.2576L19.5021 23.7199H17.6835Z" fill="#3977BB"/>
<path fill-rule="evenodd" clip-rule="evenodd" d="M24.2422 18.9747V23.7206H25.7457V22.222H27.2866C28.5911 22.222 29.5799 21.6612 29.5799 20.5706C29.5799 19.6673 28.8042 18.9747 27.4771 18.9747H24.2422ZM25.7457 20.048H27.3686C27.7897 20.048 28.0913 20.2568 28.0913 20.5942C28.0913 20.9112 27.7916 21.1404 27.3641 21.1404H25.7457V20.048V20.048Z" fill="#3977BB"/>
<path fill-rule="evenodd" clip-rule="evenodd" d="M30.2146 18.9734V23.72H31.6793V22.0336H32.2954L34.0514 23.72H35.841L33.9145 21.9712C34.705 21.9171 35.5206 21.3671 35.5206 20.5134C35.5206 19.5145 34.5532 18.9741 33.4734 18.9741H30.2146V18.9734V18.9734ZM31.6793 20.0353H33.3526C33.7543 20.0353 34.0462 20.2899 34.0462 20.5344C34.0462 20.8501 33.6684 21.0348 33.3746 21.0348H31.6793V20.0353V20.0353Z" fill="#3977BB"/>
<path fill-rule="evenodd" clip-rule="evenodd" d="M41.5899 23.7199V22.6892H44.5206C44.9546 22.6892 45.1425 22.4995 45.1425 22.2913C45.1425 22.0914 44.9553 21.8903 44.5206 21.8903H43.1967C42.0458 21.8903 41.4045 21.3218 41.4045 20.4687C41.4045 19.7073 41.9916 18.974 43.7024 18.974H46.5537L45.9369 20.0416H43.4712C42.9991 20.0416 42.8544 20.2415 42.8544 20.4331C42.8544 20.6298 43.0339 20.8469 43.3937 20.8469H44.7809C46.0641 20.8469 46.6215 21.437 46.6215 22.2092C46.6215 23.0394 46.0008 23.7199 44.7111 23.7199H41.5899V23.7199Z" fill="#3977BB"/>
<path fill-rule="evenodd" clip-rule="evenodd" d="M46.9649 23.7199V22.6892H49.7723C50.2056 22.6892 50.3935 22.4995 50.3935 22.2913C50.3935 22.0914 50.2063 21.8903 49.7723 21.8903H48.5717C47.4202 21.8903 46.7795 21.3218 46.7795 20.4687C46.7795 19.7073 47.3666 18.974 49.0774 18.974H51.8725L51.2557 20.0416H48.8462C48.3747 20.0416 48.2294 20.2415 48.2294 20.4331C48.2294 20.6298 48.4089 20.8469 48.7693 20.8469H50.0319C51.3151 20.8469 51.8725 21.437 51.8725 22.2092C51.8725 23.0394 51.2518 23.7199 49.9621 23.7199H46.9649V23.7199Z" fill="#3977BB"/>
</svg>
