<svg width="54" height="36" viewBox="0 0 54 36" fill="none" xmlns="http://www.w3.org/2000/svg">
<path d="M8.17322 12.6347C8.95014 12.6347 9.61534 12.8512 10.1707 13.286C10.7268 13.7182 11.1479 14.3358 11.4333 15.136C11.7194 15.9356 11.8621 16.8752 11.8621 17.9536C11.8621 18.7513 11.7833 19.4764 11.6271 20.1276C11.4701 20.7808 11.2363 21.3455 10.9231 21.8235C10.6099 22.3016 10.2269 22.6664 9.77033 22.9211C9.31438 23.1738 8.79321 23.3011 8.20422 23.3011C7.61911 23.3011 7.09471 23.1712 6.63359 22.9096C6.1699 22.6499 5.78499 22.2825 5.47499 21.8089C5.165 21.3359 4.93122 20.7668 4.77299 20.099C4.61477 19.4331 4.53662 18.7124 4.53662 17.939C4.53662 17.1464 4.61799 16.4206 4.78397 15.7579C4.9493 15.0971 5.18761 14.535 5.50083 14.069C5.8134 13.6056 6.19444 13.2497 6.64393 13.0046C7.09148 12.7576 7.60167 12.6347 8.17322 12.6347ZM10.3257 17.939C10.3257 17.1846 10.2373 16.5289 10.061 15.9744C9.88335 15.4218 9.63084 15.0036 9.30341 14.7177C8.97598 14.4344 8.59817 14.2925 8.17322 14.2925C7.87163 14.2925 7.59134 14.372 7.3356 14.528C7.07727 14.6865 6.8564 14.9144 6.6717 15.2149C6.48699 15.5154 6.34039 15.8999 6.23254 16.3659C6.12663 16.8338 6.07238 17.3577 6.07238 17.939C6.07238 18.5278 6.12663 19.0562 6.23254 19.5318C6.34039 20.0048 6.49216 20.3988 6.6872 20.7114C6.88288 21.0233 7.10762 21.2563 7.36014 21.4104C7.61395 21.5664 7.891 21.6434 8.19389 21.6434C8.58267 21.6434 8.93723 21.5091 9.26337 21.2423C9.58757 20.9756 9.8446 20.5624 10.0383 20.0028C10.2302 19.4452 10.3257 18.7557 10.3257 17.939ZM13.1686 18.8614V13.901C13.1686 13.4782 13.2384 13.1638 13.3759 12.9518C13.5135 12.7404 13.6943 12.6347 13.9191 12.6347C14.1529 12.6347 14.3389 12.7404 14.4771 12.9518C14.6146 13.1638 14.6837 13.4808 14.6837 13.901V18.9766C14.6837 19.5534 14.7309 20.0366 14.8245 20.423C14.9169 20.8101 15.0841 21.1099 15.3211 21.3238C15.5601 21.5377 15.8927 21.6434 16.3209 21.6434C16.9131 21.6434 17.3309 21.4269 17.5763 20.9921C17.8224 20.5573 17.9445 19.8991 17.9445 19.018V13.901C17.9445 13.4757 18.0123 13.1561 18.1479 12.9473C18.2835 12.7385 18.4669 12.6347 18.6949 12.6347C18.9216 12.6347 19.1056 12.7385 19.2471 12.9473C19.3885 13.1561 19.4595 13.4757 19.4595 13.901V18.8614C19.4595 19.6686 19.4021 20.3441 19.289 20.882C19.1741 21.4225 18.9597 21.8955 18.6426 22.3042C18.3707 22.6499 18.0536 22.902 17.6932 23.063C17.3329 23.2215 16.9118 23.3011 16.4294 23.3011C15.8539 23.3011 15.3599 23.2145 14.9433 23.0439C14.5287 22.8733 14.191 22.6066 13.93 22.2488C13.6666 21.891 13.4754 21.4295 13.3514 20.8699C13.2293 20.3103 13.1686 19.64 13.1686 18.8614ZM25.9597 14.5376H24.3071V22.0279C24.3071 22.4602 24.2373 22.7797 24.0959 22.9885C23.9564 23.1973 23.7755 23.3011 23.5547 23.3011C23.3299 23.3011 23.1452 23.1954 23.0038 22.9841C22.863 22.7727 22.7913 22.4551 22.7913 22.0279V14.5376H21.1387C20.8791 14.5376 20.6872 14.458 20.562 14.302C20.4367 14.1435 20.3721 13.9347 20.3721 13.675C20.3721 13.4082 20.4386 13.1969 20.5691 13.0409C20.6995 12.8849 20.8894 12.8079 21.1387 12.8079H25.9597C26.2226 12.8079 26.4157 12.8875 26.5448 13.0479C26.672 13.209 26.7366 13.4184 26.7366 13.675C26.7366 13.9347 26.6701 14.1435 26.5409 14.302C26.4124 14.458 26.2193 14.5376 25.9597 14.5376ZM29.6661 18.7175H29.1345V22.0279C29.1345 22.4652 29.0648 22.7842 28.9259 22.9911C28.7871 23.1973 28.6037 23.3011 28.3809 23.3011C28.1387 23.3011 27.9501 23.1929 27.8184 22.9764C27.686 22.7606 27.6195 22.4455 27.6195 22.0279V14.0881C27.6195 13.6393 27.6931 13.3121 27.839 13.1109C27.9856 12.9091 28.222 12.8079 28.5481 12.8079H31.0126C31.3523 12.8079 31.6429 12.827 31.8851 12.8677C32.1273 12.9091 32.3449 12.9881 32.5387 13.1109C32.7731 13.2478 32.9804 13.442 33.1619 13.6941C33.3408 13.9487 33.4783 14.2447 33.5707 14.5783C33.665 14.9144 33.7121 15.2703 33.7121 15.6472C33.7121 16.4162 33.5552 17.0312 33.24 17.4921C32.9249 17.9511 32.4476 18.2776 31.8089 18.4699C32.0769 18.6672 32.3346 18.9575 32.58 19.342C32.8241 19.7266 33.0437 20.1372 33.2348 20.5694C33.4267 21.0042 33.5765 21.3938 33.6843 21.744C33.7909 22.0928 33.8445 22.3328 33.8445 22.4652C33.8445 22.5996 33.8135 22.7339 33.7502 22.8682C33.6876 23.0032 33.6023 23.1089 33.4932 23.1859C33.3847 23.2623 33.2575 23.3011 33.1147 23.3011C32.9462 23.3011 32.8028 23.2457 32.6859 23.135C32.5709 23.0248 32.4721 22.8854 32.3882 22.7173C32.3049 22.5493 32.1919 22.2991 32.0485 21.9725L31.4408 20.579C31.2231 20.0697 31.0281 19.6807 30.8576 19.414C30.6852 19.1453 30.5108 18.9626 30.3332 18.864C30.1569 18.7653 29.9341 18.7175 29.6661 18.7175ZM30.5334 14.379H29.1345V17.2183H30.4921C30.8563 17.2183 31.1624 17.175 31.4111 17.0885C31.6584 17.0025 31.8483 16.8535 31.9787 16.6441C32.1098 16.4353 32.1763 16.1469 32.1763 15.7821C32.1763 15.4937 32.124 15.2416 32.0175 15.0227C31.9129 14.8043 31.7669 14.6407 31.579 14.5325C31.4027 14.4293 31.0546 14.379 30.5334 14.379ZM38.4376 12.6347C39.2145 12.6347 39.8797 12.8512 40.4351 13.286C40.9911 13.7182 41.4128 14.3358 41.6983 15.136C41.9837 15.9356 42.1265 16.8752 42.1265 17.9536C42.1265 18.7513 42.0483 19.4764 41.8914 20.1276C41.7345 20.7808 41.5013 21.3455 41.1875 21.8235C40.8742 22.3016 40.4913 22.6664 40.0347 22.9211C39.5787 23.1738 39.0575 23.3011 38.4692 23.3011C37.8841 23.3011 37.3597 23.1712 36.8979 22.9096C36.4342 22.6499 36.0493 22.2825 35.74 21.8089C35.43 21.3359 35.1962 20.7668 35.038 20.099C34.8797 19.4331 34.801 18.7124 34.801 17.939C34.801 17.1464 34.883 16.4206 35.0483 15.7579C35.2136 15.0971 35.4526 14.535 35.7658 14.069C36.0777 13.6056 36.4588 13.2497 36.9083 13.0046C37.3565 12.7576 37.866 12.6347 38.4376 12.6347ZM40.5907 17.939C40.5907 17.1846 40.5016 16.5289 40.3253 15.9744C40.1477 15.4218 39.8952 15.0036 39.5684 14.7177C39.2403 14.4344 38.8625 14.2925 38.4376 14.2925C38.1366 14.2925 37.8563 14.372 37.5999 14.528C37.3423 14.6865 37.1207 14.9144 36.936 15.2149C36.7513 15.5154 36.6054 15.8999 36.4975 16.3659C36.391 16.8338 36.3374 17.3577 36.3374 17.939C36.3374 18.5278 36.391 19.0562 36.4975 19.5318C36.6054 20.0048 36.7565 20.3988 36.9522 20.7114C37.1472 21.0233 37.372 21.2563 37.6245 21.4104C37.8789 21.5664 38.156 21.6434 38.4582 21.6434C38.847 21.6434 39.2022 21.5091 39.5277 21.2423C39.8519 20.9756 40.1096 20.5624 40.3027 20.0028C40.4945 19.4452 40.5907 18.7557 40.5907 17.939ZM49.1078 20.034C49.1078 20.656 48.9909 21.2156 48.7577 21.7128C48.5259 22.2106 48.1849 22.5996 47.7354 22.8803C47.2859 23.1617 46.7531 23.3011 46.1383 23.3011C45.3995 23.3011 44.7898 23.1089 44.3106 22.7269C43.9716 22.4506 43.6958 22.0807 43.4833 21.6192C43.2715 21.1583 43.1649 20.7088 43.1649 20.2715C43.1649 20.0194 43.2295 19.803 43.3568 19.6209C43.4833 19.4407 43.6454 19.3516 43.8424 19.3516C44.0026 19.3516 44.1369 19.421 44.2467 19.5629C44.3578 19.7024 44.4521 19.9112 44.5302 20.19C44.6245 20.5166 44.7291 20.7929 44.8389 21.0119C44.95 21.2328 45.105 21.4148 45.3052 21.5594C45.5073 21.7013 45.7708 21.7733 46.0976 21.7733C46.5458 21.7733 46.9113 21.6287 47.1916 21.341C47.4719 21.0526 47.6133 20.6923 47.6133 20.2594C47.6133 19.9163 47.5384 19.6374 47.3867 19.4261C47.2355 19.2122 47.0386 19.0492 46.7983 18.9359C46.5594 18.8232 46.2371 18.7029 45.8367 18.5756C45.3 18.403 44.8486 18.1987 44.4882 17.9682C44.1259 17.7346 43.8392 17.4176 43.6261 17.0165C43.4136 16.6155 43.3077 16.1183 43.3077 15.5198C43.3077 14.9533 43.4188 14.4484 43.6435 14.0066C43.8682 13.5667 44.1944 13.2281 44.6193 12.9906C45.0443 12.7525 45.5441 12.6347 46.1189 12.6347C46.5768 12.6347 46.974 12.7143 47.3098 12.8703C47.6443 13.0288 47.9233 13.2382 48.1442 13.4973C48.3638 13.7571 48.5259 14.0308 48.6286 14.3167C48.73 14.6025 48.7816 14.8832 48.7816 15.1551C48.7816 15.4021 48.717 15.6281 48.5905 15.8273C48.4632 16.0272 48.3031 16.1253 48.1132 16.1253C47.9388 16.1253 47.8084 16.0654 47.7173 15.9476C47.6269 15.8273 47.5294 15.6306 47.4254 15.3594C47.2872 14.9698 47.1251 14.6649 46.9339 14.4465C46.7441 14.2275 46.438 14.1193 46.0143 14.1193C45.6242 14.1193 45.3071 14.2371 45.0688 14.4752C44.8279 14.7126 44.7085 14.9966 44.7085 15.3301C44.7085 15.537 44.7485 15.7146 44.8299 15.8662C44.9119 16.0151 45.0256 16.1444 45.1676 16.2526C45.3104 16.3608 45.4557 16.4448 45.6016 16.5072C45.7482 16.5677 45.9898 16.6562 46.3262 16.774C46.748 16.9108 47.1309 17.0598 47.4719 17.226C47.8135 17.3889 48.1042 17.5882 48.3451 17.8237C48.5853 18.0567 48.7713 18.3547 48.9056 18.7124C49.04 19.0728 49.1078 19.5127 49.1078 20.034Z" fill="#373435"/>
<path d="M1 1.01H53V0.99H1V1.01ZM52.99 1V35H53.01V1H52.99ZM53 34.99H1V35.01H53V34.99ZM1.01 35V1H0.99V35H1.01Z" fill="black"/>
<path d="M48.4412 1H5.55883C3.04106 1 1 2.84237 1 5.11504V30.885C1 33.1576 3.04106 35 5.55883 35H48.4412C50.9589 35 53 33.1576 53 30.885V5.11504C53 2.84237 50.9589 1 48.4412 1Z" stroke="#373435" stroke-width="0.5" stroke-miterlimit="22.9256"/>
</svg>
