<svg width="54" height="36" viewBox="0 0 54 36" fill="none" xmlns="http://www.w3.org/2000/svg">
<path d="M1 6C1 3.23858 3.23858 1 6 1H48C50.7614 1 53 3.23858 53 6V30C53 32.7614 50.7614 35 48 35H6C3.23858 35 1 32.7614 1 30V6Z" fill="white"/>
<path d="M48.4412 1H5.55883C3.04106 1 1 2.84237 1 5.11504V30.885C1 33.1576 3.04106 35 5.55883 35H48.4412C50.9589 35 53 33.1576 53 30.885V5.11504C53 2.84237 50.9589 1 48.4412 1Z" stroke="#A9ABAE" stroke-width="0.0847" stroke-miterlimit="22.9256"/>
<path d="M8.17274 12.6348C8.94965 12.6348 9.61485 12.8512 10.1703 13.286C10.7263 13.7183 11.1474 14.3358 11.4328 15.136C11.7189 15.9356 11.8616 16.8752 11.8616 17.9536C11.8616 18.7513 11.7829 19.4764 11.6266 20.1277C11.4696 20.7808 11.2359 21.3455 10.9226 21.8236C10.6094 22.3017 10.2264 22.6664 9.76984 22.9211C9.3139 23.1738 8.79272 23.3011 8.20374 23.3011C7.61862 23.3011 7.09422 23.1713 6.6331 22.9096C6.16941 22.6499 5.7845 22.2826 5.47451 21.8089C5.16451 21.3359 4.93073 20.7668 4.7725 20.099C4.61428 19.4331 4.53613 18.7125 4.53613 17.939C4.53613 17.1464 4.61751 16.4207 4.78348 15.758C4.94881 15.0972 5.18712 14.535 5.50034 14.069C5.81292 13.6056 6.19395 13.2497 6.64344 13.0046C7.09099 12.7576 7.60119 12.6348 8.17274 12.6348ZM10.3252 17.939C10.3252 17.1846 10.2368 16.5289 10.0605 15.9744C9.88286 15.4218 9.63035 15.0036 9.30292 14.7177C8.97549 14.4345 8.59768 14.2925 8.17274 14.2925C7.87114 14.2925 7.59085 14.3721 7.33511 14.528C7.07678 14.6866 6.85591 14.9145 6.67121 15.2149C6.4865 15.5154 6.3399 15.8999 6.23205 16.3659C6.12614 16.8338 6.07189 17.3578 6.07189 17.939C6.07189 18.5279 6.12614 19.0562 6.23205 19.5318C6.3399 20.0048 6.49167 20.3988 6.68671 20.7114C6.88239 21.0234 7.10714 21.2564 7.35965 21.4104C7.61346 21.5664 7.89051 21.6434 8.1934 21.6434C8.58218 21.6434 8.93674 21.5091 9.26288 21.2424C9.58708 20.9756 9.84411 20.5625 10.0379 20.0029C10.2297 19.4452 10.3252 18.7558 10.3252 17.939ZM13.1681 18.8614V13.901C13.1681 13.4783 13.2379 13.1638 13.3754 12.9518C13.513 12.7404 13.6938 12.6348 13.9186 12.6348C14.1524 12.6348 14.3384 12.7404 14.4766 12.9518C14.6141 13.1638 14.6832 13.4808 14.6832 13.901V18.9767C14.6832 19.5534 14.7304 20.0366 14.824 20.423C14.9164 20.8101 15.0836 21.1099 15.3207 21.3238C15.5596 21.5377 15.8922 21.6434 16.3204 21.6434C16.9126 21.6434 17.3304 21.427 17.5758 20.9922C17.8219 20.5574 17.944 19.8991 17.944 19.018V13.901C17.944 13.4757 18.0118 13.1561 18.1474 12.9473C18.283 12.7385 18.4664 12.6348 18.6944 12.6348C18.9211 12.6348 19.1051 12.7385 19.2466 12.9473C19.388 13.1561 19.4591 13.4757 19.4591 13.901V18.8614C19.4591 19.6687 19.4016 20.3441 19.2886 20.882C19.1736 21.4225 18.9592 21.8955 18.6421 22.3042C18.3702 22.6499 18.0531 22.902 17.6927 23.0631C17.3324 23.2216 16.9113 23.3011 16.4289 23.3011C15.8535 23.3011 15.3594 23.2146 14.9428 23.044C14.5282 22.8733 14.1905 22.6066 13.9296 22.2488C13.6661 21.8911 13.4749 21.4295 13.3509 20.8699C13.2288 20.3104 13.1681 19.64 13.1681 18.8614ZM25.9592 14.5376H24.3066V22.0279C24.3066 22.4602 24.2368 22.7798 24.0954 22.9886C23.9559 23.1974 23.7751 23.3011 23.5542 23.3011C23.3294 23.3011 23.1447 23.1955 23.0033 22.9841C22.8625 22.7728 22.7908 22.4551 22.7908 22.0279V14.5376H21.1382C20.8786 14.5376 20.6868 14.458 20.5615 14.302C20.4362 14.1435 20.3716 13.9347 20.3716 13.675C20.3716 13.4082 20.4381 13.1969 20.5686 13.0409C20.699 12.885 20.8889 12.8079 21.1382 12.8079H25.9592C26.2221 12.8079 26.4152 12.8875 26.5443 13.0479C26.6716 13.209 26.7361 13.4184 26.7361 13.675C26.7361 13.9347 26.6696 14.1435 26.5405 14.302C26.4119 14.458 26.2188 14.5376 25.9592 14.5376ZM29.6656 18.7176H29.1341V22.0279C29.1341 22.4653 29.0643 22.7842 28.9255 22.9911C28.7866 23.1974 28.6032 23.3011 28.3804 23.3011C28.1382 23.3011 27.9496 23.1929 27.8179 22.9765C27.6855 22.7607 27.619 22.4455 27.619 22.0279V14.0881C27.619 13.6393 27.6926 13.3121 27.8385 13.1109C27.9851 12.9091 28.2215 12.8079 28.5477 12.8079H31.0121C31.3518 12.8079 31.6424 12.827 31.8846 12.8678C32.1268 12.9091 32.3444 12.9881 32.5382 13.1109C32.7726 13.2478 32.9799 13.442 33.1614 13.6941C33.3403 13.9487 33.4778 14.2447 33.5702 14.5783C33.6645 14.9145 33.7116 15.2703 33.7116 15.6472C33.7116 16.4162 33.5547 17.0312 33.2395 17.4921C32.9244 17.9511 32.4471 18.2777 31.8084 18.4699C32.0764 18.6673 32.3341 18.9576 32.5795 19.3421C32.8236 19.7266 33.0432 20.1372 33.2344 20.5695C33.4262 21.0043 33.576 21.3939 33.6838 21.744C33.7904 22.0929 33.844 22.3329 33.844 22.4653C33.844 22.5996 33.813 22.7339 33.7497 22.8683C33.6871 23.0032 33.6018 23.1089 33.4927 23.1859C33.3842 23.2623 33.257 23.3011 33.1142 23.3011C32.9457 23.3011 32.8023 23.2458 32.6854 23.135C32.5705 23.0249 32.4716 22.8854 32.3877 22.7174C32.3044 22.5493 32.1914 22.2991 32.048 21.9725L31.4403 20.579C31.2226 20.0697 31.0276 19.6808 30.8571 19.414C30.6847 19.1454 30.5103 18.9627 30.3327 18.864C30.1564 18.7653 29.9336 18.7176 29.6656 18.7176ZM30.5329 14.3791H29.1341V17.2183H30.4916C30.8558 17.2183 31.1619 17.1751 31.4106 17.0885C31.6579 17.0025 31.8478 16.8536 31.9782 16.6441C32.1093 16.4353 32.1759 16.1469 32.1759 15.7822C32.1759 15.4938 32.1236 15.2417 32.017 15.0227C31.9124 14.8043 31.7664 14.6407 31.5785 14.5325C31.4022 14.4294 31.0541 14.3791 30.5329 14.3791ZM38.4371 12.6348C39.214 12.6348 39.8792 12.8512 40.4346 13.286C40.9906 13.7183 41.4124 14.3358 41.6978 15.136C41.9833 15.9356 42.126 16.8752 42.126 17.9536C42.126 18.7513 42.0478 19.4764 41.8909 20.1277C41.734 20.7808 41.5008 21.3455 41.187 21.8236C40.8737 22.3017 40.4908 22.6664 40.0342 22.9211C39.5782 23.1738 39.0571 23.3011 38.4687 23.3011C37.8836 23.3011 37.3592 23.1713 36.8974 22.9096C36.4337 22.6499 36.0488 22.2826 35.7395 21.8089C35.4295 21.3359 35.1957 20.7668 35.0375 20.099C34.8793 19.4331 34.8005 18.7125 34.8005 17.939C34.8005 17.1464 34.8825 16.4207 35.0478 15.758C35.2131 15.0972 35.4521 14.535 35.7653 14.069C36.0773 13.6056 36.4583 13.2497 36.9078 13.0046C37.356 12.7576 37.8655 12.6348 38.4371 12.6348ZM40.5902 17.939C40.5902 17.1846 40.5011 16.5289 40.3248 15.9744C40.1472 15.4218 39.8947 15.0036 39.5679 14.7177C39.2398 14.4345 38.862 14.2925 38.4371 14.2925C38.1361 14.2925 37.8558 14.3721 37.5994 14.528C37.3418 14.6866 37.1202 14.9145 36.9355 15.2149C36.7508 15.5154 36.6049 15.8999 36.497 16.3659C36.3905 16.8338 36.3369 17.3578 36.3369 17.939C36.3369 18.5279 36.3905 19.0562 36.497 19.5318C36.6049 20.0048 36.756 20.3988 36.9517 20.7114C37.1467 21.0234 37.3715 21.2564 37.624 21.4104C37.8784 21.5664 38.1555 21.6434 38.4577 21.6434C38.8465 21.6434 39.2017 21.5091 39.5272 21.2424C39.8514 20.9756 40.1091 20.5625 40.3022 20.0029C40.494 19.4452 40.5902 18.7558 40.5902 17.939ZM49.1073 20.0341C49.1073 20.656 48.9904 21.2156 48.7572 21.7128C48.5254 22.2106 48.1844 22.5996 47.7349 22.8803C47.2854 23.1617 46.7526 23.3011 46.1378 23.3011C45.399 23.3011 44.7893 23.1089 44.3101 22.7269C43.9711 22.4506 43.6953 22.0808 43.4828 21.6192C43.271 21.1583 43.1645 20.7089 43.1645 20.2715C43.1645 20.0194 43.229 19.803 43.3563 19.6209C43.4829 19.4408 43.645 19.3516 43.8419 19.3516C44.0021 19.3516 44.1364 19.421 44.2462 19.563C44.3573 19.7024 44.4516 19.9112 44.5297 20.19C44.624 20.5166 44.7286 20.7929 44.8384 21.0119C44.9495 21.2328 45.1045 21.4149 45.3047 21.5594C45.5068 21.7013 45.7703 21.7733 46.0971 21.7733C46.5453 21.7733 46.9109 21.6288 47.1911 21.341C47.4714 21.0526 47.6129 20.6923 47.6129 20.2594C47.6129 19.9163 47.5379 19.6375 47.3862 19.4261C47.2351 19.2122 47.0381 19.0492 46.7978 18.9359C46.5589 18.8232 46.2366 18.7029 45.8362 18.5756C45.2995 18.4031 44.8481 18.1987 44.4877 17.9683C44.1254 17.7346 43.8387 17.4176 43.6256 17.0165C43.4131 16.6155 43.3072 16.1183 43.3072 15.5199C43.3072 14.9533 43.4183 14.4485 43.643 14.0067C43.8678 13.5668 44.1939 13.2281 44.6188 12.9906C45.0438 12.7525 45.5437 12.6348 46.1184 12.6348C46.5763 12.6348 46.9735 12.7143 47.3093 12.8703C47.6439 13.0288 47.9229 13.2383 48.1437 13.4974C48.3633 13.7571 48.5254 14.0308 48.6281 14.3167C48.7295 14.6025 48.7811 14.8833 48.7811 15.1551C48.7811 15.4021 48.7166 15.6281 48.59 15.8274C48.4628 16.0273 48.3026 16.1253 48.1127 16.1253C47.9384 16.1253 47.8079 16.0655 47.7168 15.9477C47.6264 15.8274 47.5289 15.6306 47.4249 15.3595C47.2867 14.9698 47.1246 14.6649 46.9335 14.4466C46.7436 14.2276 46.4375 14.1193 46.0138 14.1193C45.6237 14.1193 45.3066 14.2371 45.0683 14.4752C44.8274 14.7127 44.708 14.9966 44.708 15.3302C44.708 15.5371 44.748 15.7147 44.8294 15.8662C44.9114 16.0152 45.0251 16.1444 45.1671 16.2526C45.3099 16.3608 45.4552 16.4449 45.6011 16.5073C45.7477 16.5677 45.9893 16.6562 46.3257 16.774C46.7475 16.9109 47.1304 17.0598 47.4714 17.226C47.8131 17.389 48.1037 17.5882 48.3446 17.8238C48.5848 18.0568 48.7708 18.3547 48.9051 18.7125C49.0395 19.0728 49.1073 19.5127 49.1073 20.0341Z" fill="#BDBFC1"/>
<path d="M6 1.5H48V0.5H6V1.5ZM52.5 6V30H53.5V6H52.5ZM48 34.5H6V35.5H48V34.5ZM1.5 30V6H0.5V30H1.5ZM6 34.5C3.51472 34.5 1.5 32.4853 1.5 30H0.5C0.5 33.0376 2.96243 35.5 6 35.5V34.5ZM52.5 30C52.5 32.4853 50.4853 34.5 48 34.5V35.5C51.0376 35.5 53.5 33.0376 53.5 30H52.5ZM48 1.5C50.4853 1.5 52.5 3.51472 52.5 6H53.5C53.5 2.96243 51.0376 0.5 48 0.5V1.5ZM6 0.5C2.96243 0.5 0.5 2.96243 0.5 6H1.5C1.5 3.51472 3.51472 1.5 6 1.5V0.5Z" fill="#BDBDBD"/>
</svg>
