<svg width="54" height="36" viewBox="0 0 54 36" fill="none" xmlns="http://www.w3.org/2000/svg">
<path d="M14.0491 29.8677C13.9375 29.7573 13.8046 29.6713 13.6513 29.61C13.4975 29.5486 13.3295 29.5183 13.1468 29.5183C13.0501 29.5183 12.9497 29.5264 12.8455 29.5427C12.7411 29.5592 12.6393 29.5884 12.5392 29.6297C12.4394 29.6713 12.3445 29.7287 12.2542 29.8021C12.1639 29.8754 12.0856 29.9679 12.0188 30.0793C11.9116 29.9045 11.7661 29.767 11.5822 29.6674C11.3986 29.568 11.1885 29.5183 10.9525 29.5183C10.8727 29.5183 10.7906 29.5252 10.7059 29.5395C10.621 29.5537 10.5364 29.5784 10.4527 29.6134C10.369 29.6483 10.2889 29.6959 10.2128 29.756C10.1365 29.8163 10.0673 29.8923 10.0049 29.9842V29.6002H9.33447V32.7447H10.0115V31.0018C10.0115 30.8682 10.0328 30.7496 10.0758 30.6457C10.1188 30.5418 10.1762 30.4548 10.2481 30.3847C10.3201 30.3147 10.4046 30.2617 10.5011 30.2254C10.5978 30.1896 10.7009 30.1714 10.8107 30.1714C11.0382 30.1714 11.2149 30.2425 11.3406 30.3847C11.4662 30.5269 11.529 30.7305 11.529 30.9951V32.7447H12.2059V31.0018C12.2059 30.8682 12.2274 30.7496 12.2704 30.6457C12.3133 30.5418 12.3708 30.4548 12.4427 30.3847C12.5146 30.3147 12.599 30.2617 12.6959 30.2254C12.7924 30.1896 12.8955 30.1714 13.005 30.1714C13.2328 30.1714 13.4095 30.2425 13.5351 30.3847C13.6608 30.5269 13.7238 30.7305 13.7238 30.9951V32.7447H14.4005V30.7688C14.4005 30.585 14.3699 30.4165 14.3085 30.2631C14.2475 30.1101 14.1609 29.9781 14.0491 29.8677Z" fill="#373435"/>
<path d="M17.6186 29.9809C17.5077 29.841 17.3698 29.7287 17.2057 29.6446C17.0414 29.5605 16.8451 29.5183 16.6163 29.5183C16.3923 29.5183 16.1836 29.5592 15.9905 29.6413C15.7973 29.7232 15.6285 29.8375 15.4842 29.9842C15.34 30.1309 15.2267 30.3055 15.1447 30.5078C15.0624 30.7101 15.0215 30.9317 15.0215 31.1726C15.0215 31.4132 15.0624 31.6348 15.1447 31.8371C15.2267 32.0394 15.34 32.214 15.4842 32.3607C15.6285 32.5074 15.7973 32.6217 15.9905 32.7038C16.1836 32.7857 16.3923 32.8268 16.6163 32.8268C16.8451 32.8268 17.0414 32.7851 17.2057 32.7021C17.3698 32.619 17.5077 32.5074 17.6186 32.3672V32.7447H18.3145V29.6002H17.6186V29.9809ZM17.592 31.5729C17.5453 31.6953 17.48 31.8017 17.3957 31.8913C17.3111 31.9809 17.2101 32.0514 17.0927 32.103C16.9749 32.1545 16.8439 32.18 16.6998 32.18C16.5487 32.18 16.4138 32.1533 16.2952 32.0997C16.1763 32.0461 16.0759 31.974 15.9936 31.8832C15.9116 31.7925 15.8484 31.6857 15.8039 31.5631C15.7595 31.4405 15.7374 31.3103 15.7374 31.1726C15.7374 31.0346 15.7595 30.9044 15.8039 30.7818C15.8484 30.6594 15.9116 30.5526 15.9936 30.4619C16.0759 30.3711 16.1763 30.2988 16.2952 30.2452C16.4138 30.1914 16.5487 30.1647 16.6998 30.1647C16.8439 30.1647 16.9749 30.1906 17.0927 30.2419C17.2101 30.2933 17.3111 30.3638 17.3957 30.4536C17.48 30.5434 17.5453 30.6494 17.592 30.772C17.6387 30.8945 17.6618 31.0281 17.6618 31.1726C17.6618 31.317 17.6387 31.4502 17.592 31.5729Z" fill="#373435"/>
<path d="M21.5131 31.1675C21.3176 31.0177 21.0457 30.9177 20.6972 30.8672L20.3676 30.8181C20.2944 30.8069 20.2256 30.7944 20.1611 30.7802C20.0967 30.7659 20.0413 30.747 19.9946 30.7227C19.9483 30.6987 19.9109 30.6681 19.8832 30.6308C19.8555 30.5936 19.8416 30.5479 19.8416 30.4929C19.8416 30.3815 19.8941 30.2912 19.9997 30.2222C20.1051 30.1533 20.2533 30.1189 20.4441 30.1189C20.5441 30.1189 20.6423 30.1276 20.7388 30.1451C20.8355 30.1627 20.927 30.1845 21.0136 30.2107C21.1 30.2368 21.179 30.266 21.2501 30.2977C21.3209 30.3295 21.3811 30.3597 21.4299 30.388L21.7295 29.853C21.563 29.7479 21.3689 29.6664 21.1467 29.6083C20.9248 29.5505 20.6886 29.5213 20.4377 29.5213C20.2333 29.5213 20.0502 29.545 19.8881 29.5918C19.7261 29.6391 19.5879 29.7057 19.4736 29.7921C19.3593 29.8787 19.2715 29.9842 19.2107 30.1089C19.1495 30.2338 19.1191 30.3737 19.1191 30.5292C19.1191 30.783 19.2107 30.9882 19.3938 31.1446C19.5767 31.3011 19.846 31.4034 20.201 31.4515L20.534 31.494C20.7249 31.5205 20.8648 31.5627 20.9537 31.6205C21.0424 31.6784 21.0868 31.7524 21.0868 31.842C21.0868 31.9604 21.0256 32.0537 20.9037 32.1225C20.7816 32.1916 20.6007 32.226 20.361 32.226C20.23 32.226 20.113 32.2175 20.0097 32.1997C19.9065 32.1822 19.8121 32.1588 19.7267 32.1293C19.6412 32.0997 19.5645 32.0657 19.4969 32.0276C19.4291 31.9893 19.3665 31.9483 19.3089 31.9045L18.9858 32.4198C19.1012 32.5051 19.2223 32.574 19.3487 32.6266C19.4752 32.6791 19.5996 32.7201 19.7216 32.7496C19.8437 32.7794 19.9592 32.7989 20.0679 32.8087C20.1766 32.8187 20.2721 32.8234 20.3544 32.8234C20.5829 32.8234 20.7878 32.7983 20.9686 32.748C21.1496 32.6977 21.3015 32.627 21.4249 32.5363C21.5481 32.4454 21.6423 32.3371 21.7078 32.2114C21.7733 32.0855 21.8062 31.9471 21.8062 31.7962C21.8062 31.527 21.7082 31.3174 21.5131 31.1675Z" fill="#373435"/>
<path d="M28.0285 29.9761C27.8965 29.8306 27.7377 29.7179 27.5521 29.6379C27.367 29.5582 27.1632 29.5183 26.9415 29.5183C26.7061 29.5183 26.4913 29.5582 26.2971 29.6379C26.1026 29.7179 25.9358 29.8306 25.7961 29.9761C25.656 30.1215 25.5473 30.2961 25.4696 30.4996C25.3919 30.7032 25.353 30.9275 25.353 31.1726C25.353 31.4219 25.3929 31.6485 25.4731 31.8518C25.5529 32.0553 25.6651 32.2295 25.8093 32.3737C25.9536 32.5182 26.1255 32.6298 26.3254 32.7085C26.525 32.7873 26.7449 32.8268 26.9846 32.8268C27.2267 32.8268 27.4569 32.7938 27.6755 32.7282C27.8942 32.6626 28.1013 32.5477 28.2966 32.3837L27.9502 31.8946C27.8171 31.9997 27.6699 32.0812 27.509 32.139C27.3482 32.1971 27.1878 32.226 27.028 32.226C26.9146 32.226 26.8059 32.2108 26.7015 32.18C26.5972 32.1496 26.5029 32.102 26.4186 32.0372C26.3341 31.9728 26.2619 31.8903 26.2022 31.7896C26.1423 31.689 26.1012 31.5674 26.079 31.4252H28.4365C28.4408 31.3859 28.4441 31.3443 28.4464 31.3005C28.4487 31.2567 28.4497 31.2129 28.4497 31.1691C28.4497 30.924 28.4125 30.7003 28.3381 30.498C28.2637 30.2955 28.1606 30.1215 28.0285 29.9761ZM26.0823 30.9034C26.1001 30.7895 26.1309 30.685 26.1756 30.5899C26.2198 30.4945 26.277 30.4126 26.3471 30.3438C26.4169 30.2747 26.5002 30.2215 26.5965 30.1845C26.6935 30.1474 26.8036 30.1286 26.928 30.1286C27.15 30.1286 27.331 30.1965 27.4707 30.3322C27.6106 30.4679 27.6993 30.6583 27.7371 30.9034H26.0823Z" fill="#373435"/>
<path d="M37.2746 29.9809C37.1637 29.841 37.026 29.7287 36.8617 29.6446C36.6974 29.5605 36.5011 29.5183 36.2723 29.5183C36.0483 29.5183 35.8396 29.5592 35.6465 29.6413C35.4533 29.7232 35.2845 29.8375 35.1402 29.9842C34.996 30.1309 34.8827 30.3055 34.8007 30.5078C34.7186 30.7101 34.6775 30.9317 34.6775 31.1726C34.6775 31.4132 34.7186 31.6348 34.8007 31.8371C34.8827 32.0394 34.996 32.214 35.1402 32.3607C35.2845 32.5074 35.4533 32.6217 35.6465 32.7038C35.8396 32.7857 36.0483 32.8268 36.2723 32.8268C36.5011 32.8268 36.6974 32.7851 36.8617 32.7021C37.026 32.619 37.1637 32.5074 37.2746 32.3672V32.7447H37.9705V29.6002H37.2746V29.9809ZM37.248 31.5729C37.2013 31.6953 37.136 31.8017 37.0517 31.8913C36.9673 31.9809 36.8661 32.0514 36.7487 32.103C36.6309 32.1545 36.5001 32.18 36.3556 32.18C36.2047 32.18 36.0698 32.1533 35.9512 32.0997C35.8323 32.0461 35.7319 31.974 35.6496 31.8832C35.5676 31.7925 35.5044 31.6857 35.4599 31.5631C35.4155 31.4405 35.3934 31.3103 35.3934 31.1726C35.3934 31.0346 35.4155 30.9044 35.4599 30.7818C35.5044 30.6594 35.5676 30.5526 35.6496 30.4619C35.7319 30.3711 35.8323 30.2988 35.9512 30.2452C36.0698 30.1914 36.2047 30.1647 36.3556 30.1647C36.5001 30.1647 36.6309 30.1906 36.7487 30.2419C36.8661 30.2933 36.9673 30.3638 37.0517 30.4536C37.136 30.5434 37.2013 30.6494 37.248 30.772C37.2947 30.8945 37.3178 31.0281 37.3178 31.1726C37.3178 31.317 37.2947 31.4502 37.248 31.5729Z" fill="#373435"/>
<path d="M24.4967 32.1179C24.3847 32.1594 24.2741 32.18 24.1654 32.18C24.0943 32.18 24.0282 32.1692 23.9674 32.1474C23.9062 32.1254 23.8529 32.0912 23.8077 32.0439C23.762 31.9969 23.7258 31.9362 23.6992 31.8618C23.6727 31.7874 23.6593 31.6976 23.6593 31.5927V30.2238H24.7769V29.6002H23.6593V28.6482H22.9601V29.6002H22.3242V30.2238H22.9601V31.6059C22.9601 32.0238 23.0606 32.3318 23.2614 32.5298C23.4621 32.7279 23.7436 32.8269 24.1055 32.8269C24.3074 32.8269 24.489 32.7961 24.65 32.735C24.7563 32.6942 24.8548 32.6482 24.9472 32.5971L24.7093 32.0225C24.642 32.0582 24.5715 32.0902 24.4967 32.1179Z" fill="#373435"/>
<path d="M30.7801 29.5183C30.5848 29.5183 30.4085 29.5531 30.2508 29.6232C30.0929 29.6933 29.9611 29.862 29.8546 30.0127V29.6002H29.2227V32.7447H29.861V31.0149C29.861 30.8814 29.8801 30.7622 29.9177 30.6571C29.9555 30.552 30.0076 30.4634 30.0743 30.3915C30.1409 30.3191 30.2208 30.2643 30.3141 30.227C30.4073 30.19 30.5094 30.1714 30.6203 30.1714C30.7047 30.1714 30.7956 30.1812 30.8933 30.201C30.9431 30.211 30.9898 30.2232 31.0332 30.2378L31.2389 29.5814C31.1831 29.5641 31.1265 29.549 31.0682 29.5395C30.9826 29.5252 30.8867 29.5183 30.7801 29.5183Z" fill="#373435"/>
<path d="M40.4539 29.5183C40.2586 29.5183 40.0821 29.5531 39.9244 29.6232C39.767 29.6933 39.6349 29.862 39.5283 30.0127V29.6002H38.8965V32.7447H39.5349V31.0149C39.5349 30.8814 39.5537 30.7622 39.5917 30.6571C39.6291 30.552 39.6814 30.4634 39.7479 30.3915C39.8145 30.3191 39.8945 30.2643 39.9877 30.227C40.0809 30.19 40.183 30.1714 40.2939 30.1714C40.3783 30.1714 40.4694 30.1812 40.567 30.201C40.617 30.211 40.6635 30.2232 40.7069 30.2378L40.9127 29.5814C40.8567 29.5641 40.8003 29.549 40.7418 29.5395C40.6564 29.5252 40.5603 29.5183 40.4539 29.5183Z" fill="#373435"/>
<path d="M43.7041 28.322V29.981C43.5931 29.841 43.4553 29.7288 43.2912 29.6446C43.1269 29.5605 42.9303 29.5183 42.7018 29.5183C42.4777 29.5183 42.269 29.5593 42.0758 29.6414C41.8828 29.7233 41.7139 29.8376 41.5697 29.9842C41.4254 30.1309 41.3122 30.3055 41.2301 30.5078C41.1479 30.7101 41.1069 30.9318 41.1069 31.1726C41.1069 31.4132 41.1479 31.6348 41.2301 31.8371C41.3122 32.0394 41.4254 32.214 41.5697 32.3607C41.7139 32.5074 41.8828 32.6217 42.0758 32.7038C42.269 32.7857 42.4777 32.8269 42.7018 32.8269C42.9303 32.8269 43.1269 32.7851 43.2912 32.7022C43.4553 32.6191 43.5931 32.5074 43.7041 32.3672V32.7448H44.3999V28.322H43.7041ZM43.6774 31.5729C43.6307 31.6954 43.5654 31.8017 43.4809 31.8913C43.3966 31.981 43.2955 32.0515 43.1779 32.103C43.0601 32.1546 42.9293 32.18 42.7851 32.18C42.6342 32.18 42.4992 32.1533 42.3804 32.0998C42.2618 32.0462 42.1611 31.9741 42.0791 31.8832C41.997 31.7925 41.9338 31.6858 41.8894 31.5631C41.8449 31.4405 41.8228 31.3103 41.8228 31.1726C41.8228 31.0347 41.8449 30.9045 41.8894 30.7818C41.9338 30.6594 41.997 30.5526 42.0791 30.462C42.1611 30.3711 42.2618 30.2988 42.3804 30.2452C42.4992 30.1914 42.6342 30.1647 42.7851 30.1647C42.9293 30.1647 43.0601 30.1906 43.1779 30.242C43.2955 30.2933 43.3966 30.3638 43.4809 30.4536C43.5654 30.5435 43.6307 30.6494 43.6774 30.7721C43.7241 30.8945 43.7473 31.0281 43.7473 31.1726C43.7473 31.317 43.7241 31.4503 43.6774 31.5729Z" fill="#373435"/>
<path d="M32.4454 30.4454C32.5341 30.3568 32.6397 30.288 32.7616 30.2387C32.884 30.1896 33.016 30.1647 33.158 30.1647C33.3143 30.1647 33.4595 30.1894 33.5939 30.2387C33.7237 30.2861 33.8361 30.3525 33.9318 30.4369L34.2668 29.8878C34.1411 29.7888 33.9996 29.7077 33.8423 29.6446C33.6323 29.5605 33.4044 29.5183 33.158 29.5183C32.9115 29.5183 32.6835 29.5605 32.4738 29.6446C32.264 29.7287 32.0832 29.8449 31.9311 29.9924C31.7789 30.1401 31.6597 30.3147 31.5731 30.5159C31.4863 30.7174 31.4431 30.936 31.4431 31.1726C31.4431 31.4087 31.4863 31.6277 31.5731 31.829C31.6597 32.0302 31.7789 32.2048 31.9311 32.3523C32.0832 32.5002 32.264 32.6162 32.4738 32.7003C32.6835 32.7847 32.9115 32.8268 33.158 32.8268C33.4044 32.8268 33.6323 32.7847 33.8423 32.7003C33.9996 32.6372 34.1411 32.5561 34.2668 32.4573L33.9318 31.9078C33.8361 31.9924 33.7237 32.0588 33.5939 32.1064C33.4595 32.1555 33.3143 32.18 33.158 32.18C33.016 32.18 32.884 32.1555 32.7616 32.1064C32.6397 32.0571 32.5341 31.9881 32.4454 31.8995C32.3566 31.8108 32.2867 31.7049 32.2357 31.581C32.1846 31.4576 32.1592 31.3213 32.1592 31.1726C32.1592 31.0236 32.1846 30.8875 32.2357 30.7637C32.2867 30.6402 32.3566 30.5341 32.4454 30.4454Z" fill="#373435"/>
<path d="M45.8663 32.2839C45.9126 32.2839 45.9562 32.2927 45.9967 32.3094C46.0372 32.3263 46.0726 32.3493 46.1027 32.3785C46.1329 32.4074 46.1567 32.4412 46.1742 32.4799C46.1916 32.5188 46.2003 32.5604 46.2003 32.6046C46.2003 32.6486 46.1916 32.69 46.1742 32.7289C46.1567 32.7678 46.1329 32.802 46.1027 32.8314C46.0726 32.8607 46.0372 32.8837 45.9967 32.9006C45.9562 32.9175 45.9126 32.9259 45.8663 32.9259C45.819 32.9259 45.7748 32.9175 45.7336 32.9006C45.6927 32.8837 45.657 32.8607 45.627 32.8314C45.5968 32.802 45.5731 32.7678 45.5559 32.7289C45.539 32.69 45.5303 32.6486 45.5303 32.6046C45.5303 32.5604 45.539 32.5188 45.5559 32.4799C45.5731 32.4412 45.5968 32.4074 45.627 32.3785C45.657 32.3493 45.6927 32.3263 45.7336 32.3094C45.7748 32.2927 45.819 32.2839 45.8663 32.2839ZM45.8663 32.8369C45.8988 32.8369 45.9291 32.8305 45.9577 32.8185C45.9862 32.8065 46.0108 32.7898 46.0318 32.7688C46.0527 32.748 46.0693 32.7234 46.0814 32.6953C46.0934 32.6671 46.0994 32.637 46.0994 32.6046C46.0994 32.5728 46.0934 32.5427 46.0814 32.5143C46.0693 32.486 46.0527 32.4616 46.0318 32.4408C46.0108 32.4202 45.9862 32.4037 45.9577 32.3915C45.9291 32.3793 45.8988 32.3734 45.8663 32.3734C45.8328 32.3734 45.8018 32.3793 45.7731 32.3915C45.7444 32.4037 45.7194 32.4202 45.6983 32.4408C45.677 32.4616 45.6603 32.486 45.6483 32.5143C45.6363 32.5427 45.6301 32.5728 45.6301 32.6046C45.6301 32.637 45.6363 32.6671 45.6483 32.6953C45.6603 32.7234 45.677 32.748 45.6983 32.7688C45.7194 32.7898 45.7444 32.8065 45.7731 32.8185C45.8018 32.8305 45.8328 32.8369 45.8663 32.8369ZM45.8851 32.4626C45.9248 32.4626 45.9548 32.4712 45.9754 32.4887C45.9959 32.506 46.006 32.5292 46.006 32.5582C46.006 32.581 45.9988 32.5999 45.9839 32.615C45.9692 32.6301 45.9477 32.6398 45.9198 32.6447L46.0097 32.7468H45.9126L45.8322 32.6476H45.8229V32.7468H45.7417V32.4626H45.8851ZM45.8229 32.5319V32.5838H45.8837C45.8963 32.5838 45.9058 32.582 45.9126 32.5783C45.9194 32.5744 45.9227 32.5677 45.9227 32.5582C45.9227 32.5492 45.9194 32.5425 45.9126 32.5382C45.9058 32.5341 45.8963 32.5319 45.8837 32.5319H45.8229Z" fill="#373435"/>
<path d="M22.281 14.9016C22.281 11.1343 24.0662 7.78029 26.8458 5.60936C24.7961 4.00887 22.2068 3.05054 19.3889 3.05054C12.7496 3.05054 7.36743 8.35643 7.36743 14.9016C7.36743 21.4466 12.7496 26.7523 19.3889 26.7523C22.2068 26.7523 24.7961 25.7939 26.8458 24.1934C24.0662 22.0227 22.281 18.6685 22.281 14.9016Z" fill="#ED3438"/>
<path d="M22.281 14.9016C22.281 18.6686 24.0662 22.0227 26.8458 24.1935C29.6255 22.0227 31.4108 18.6686 31.4108 14.9016C31.4108 11.1343 29.6255 7.7803 26.8458 5.60938C24.0662 7.7803 22.281 11.1343 22.281 14.9016Z" fill="#F27035"/>
<path d="M45.5093 21.3115V20.9648H45.3669V20.8692H45.7569V20.9648H45.6143V21.3115H45.5093ZM46.263 21.3115V21.0047L46.162 21.2694H46.0504L45.9495 21.0055V21.3115H45.8445V20.8692H45.995L46.1066 21.1526L46.2174 20.8692H46.368V21.3115H46.263Z" fill="#F9A233"/>
<path d="M34.3024 3.05054C31.4845 3.05054 28.8954 4.00887 26.8457 5.60936C29.6253 7.78029 31.4107 11.1343 31.4107 14.9016C31.4107 18.6685 29.6253 22.0227 26.8457 24.1934C28.8954 25.7939 31.4845 26.7523 34.3024 26.7523C40.9419 26.7523 46.3241 21.4466 46.3241 14.9016C46.3241 8.35643 40.9419 3.05054 34.3024 3.05054Z" fill="#F9A233"/>
<path d="M48.4412 1H5.55882C3.04105 1 1 2.84221 1 5.1147V30.8853C1 33.1578 3.04105 35 5.55882 35H48.4412C50.9589 35 53 33.1578 53 30.8853V5.1147C53 2.84221 50.9589 1 48.4412 1Z" stroke="#373435" stroke-width="0.5" stroke-miterlimit="22.9256"/>
</svg>
