<svg width="245" height="140" viewBox="0 0 245 140" fill="none" xmlns="http://www.w3.org/2000/svg">
<g clip-path="url(#clip0)">
<path d="M115.562 71.5975C112.858 74.3019 108.473 74.3019 105.769 71.5975C103.064 68.8931 103.064 64.5083 105.769 61.8039C108.473 59.0995 112.858 59.0995 115.562 61.8039C118.267 64.5083 118.267 68.8931 115.562 71.5975Z" fill="black" fill-opacity="0.87" stroke="black" stroke-width="0.1"/>
<path d="M136.005 31.4968L129.602 37.8996C145.507 53.8046 145.507 79.5965 129.602 95.5015L136.005 101.904C155.439 82.4698 155.439 50.9313 136.005 31.4968V31.4968ZM123.2 44.3023L116.797 50.705C125.62 59.5286 125.62 73.8725 116.797 82.696L123.2 89.0988C135.575 76.7232 135.575 56.6779 123.2 44.3023V44.3023Z" fill="black" fill-opacity="0.87"/>
</g>
<path d="M237.848 16H184.152C180.754 16 178 18.7642 178 22.174V108.826C178 112.236 180.754 115 184.152 115H237.848C241.246 115 244 112.236 244 108.826V22.174C244 18.7642 241.246 16 237.848 16Z" stroke="#373435" stroke-width="1.5" stroke-miterlimit="22.9256"/>
<path d="M234.537 28.8203H187.225V55.8849H234.537V28.8203Z" stroke="#373435" stroke-width="1.5" stroke-miterlimit="22.9256"/>
<path d="M196.602 63.4822H188.431C187.813 63.4822 187.312 63.9848 187.312 64.6048V68.5323C187.312 69.1523 187.813 69.6549 188.431 69.6549H196.602C197.22 69.6549 197.721 69.1523 197.721 68.5323V64.6048C197.721 63.9848 197.22 63.4822 196.602 63.4822Z" stroke="#373435" stroke-width="1.5" stroke-miterlimit="22.9256"/>
<path d="M196.602 75.8303H188.431C187.813 75.8303 187.312 76.333 187.312 76.953V80.8804C187.312 81.5004 187.813 82.0031 188.431 82.0031H196.602C197.22 82.0031 197.721 81.5004 197.721 80.8804V76.953C197.721 76.333 197.22 75.8303 196.602 75.8303Z" stroke="#373435" stroke-width="1.5" stroke-miterlimit="22.9256"/>
<path d="M196.602 87.6177H188.431C187.813 87.6177 187.312 88.1203 187.312 88.7403V92.6678C187.312 93.2878 187.813 93.7904 188.431 93.7904H196.602C197.22 93.7904 197.721 93.2878 197.721 92.6678V88.7403C197.721 88.1203 197.22 87.6177 196.602 87.6177Z" stroke="#373435" stroke-width="1.5" stroke-miterlimit="22.9256"/>
<path d="M232.956 63.4822H224.785C224.167 63.4822 223.666 63.9848 223.666 64.6048V68.5323C223.666 69.1523 224.167 69.6549 224.785 69.6549H232.956C233.574 69.6549 234.074 69.1523 234.074 68.5323V64.6048C234.074 63.9848 233.574 63.4822 232.956 63.4822Z" stroke="#373435" stroke-width="1.5" stroke-miterlimit="22.9256"/>
<path d="M232.956 75.8303H224.785C224.167 75.8303 223.666 76.333 223.666 76.953V80.8804C223.666 81.5004 224.167 82.0031 224.785 82.0031H232.956C233.574 82.0031 234.074 81.5004 234.074 80.8804V76.953C234.074 76.333 233.574 75.8303 232.956 75.8303Z" stroke="#373435" stroke-width="1.5" stroke-miterlimit="22.9256"/>
<path d="M232.956 87.6177H224.785C224.167 87.6177 223.666 88.1203 223.666 88.7403V92.6678C223.666 93.2878 224.167 93.7904 224.785 93.7904H232.956C233.574 93.7904 234.074 93.2878 234.074 92.6678V88.7403C234.074 88.1203 233.574 87.6177 232.956 87.6177Z" stroke="#373435" stroke-width="1.5" stroke-miterlimit="22.9256"/>
<path d="M215.059 63.4822H206.888C206.27 63.4822 205.769 63.9848 205.769 64.6048V68.5323C205.769 69.1523 206.27 69.6549 206.888 69.6549H215.059C215.677 69.6549 216.177 69.1523 216.177 68.5323V64.6048C216.177 63.9848 215.677 63.4822 215.059 63.4822Z" stroke="#373435" stroke-width="1.5" stroke-miterlimit="22.9256"/>
<path d="M215.059 75.8303H206.888C206.27 75.8303 205.769 76.333 205.769 76.953V80.8804C205.769 81.5004 206.27 82.0031 206.888 82.0031H215.059C215.677 82.0031 216.177 81.5004 216.177 80.8804V76.953C216.177 76.333 215.677 75.8303 215.059 75.8303Z" stroke="#373435" stroke-width="1.5" stroke-miterlimit="22.9256"/>
<path d="M215.059 87.6177H206.888C206.27 87.6177 205.769 88.1203 205.769 88.7403V92.6678C205.769 93.2878 206.27 93.7904 206.888 93.7904H215.059C215.677 93.7904 216.177 93.2878 216.177 92.6678V88.7403C216.177 88.1203 215.677 87.6177 215.059 87.6177Z" stroke="#373435" stroke-width="1.5" stroke-miterlimit="22.9256"/>
<path d="M195.149 104.702H188.187C187.878 104.702 187.627 104.89 187.627 105.121C187.627 105.353 187.878 105.541 188.187 105.541H195.149C195.458 105.541 195.708 105.353 195.708 105.121C195.708 104.89 195.458 104.702 195.149 104.702Z" stroke="#373435" stroke-width="1.5" stroke-miterlimit="22.9256"/>
<path d="M208.013 104.702H201.05C200.741 104.702 200.491 104.89 200.491 105.121C200.491 105.353 200.741 105.541 201.05 105.541H208.013C208.321 105.541 208.572 105.353 208.572 105.121C208.572 104.89 208.321 104.702 208.013 104.702Z" stroke="#373435" stroke-width="1.5" stroke-miterlimit="22.9256"/>
<path d="M220.316 104.702H213.354C213.045 104.702 212.795 104.89 212.795 105.121C212.795 105.353 213.045 105.541 213.354 105.541H220.316C220.625 105.541 220.876 105.353 220.876 105.121C220.876 104.89 220.625 104.702 220.316 104.702Z" stroke="#373435" stroke-width="1.5" stroke-miterlimit="22.9256"/>
<path d="M233.18 104.702H226.218C225.909 104.702 225.658 104.89 225.658 105.121C225.658 105.353 225.909 105.541 226.218 105.541H233.18C233.489 105.541 233.739 105.353 233.739 105.121C233.739 104.89 233.489 104.702 233.18 104.702Z" stroke="#373435" stroke-width="1.5" stroke-miterlimit="22.9256"/>
<path fill-rule="evenodd" clip-rule="evenodd" d="M28.2805 83.0637C31.6134 85.9652 35.9676 87.7219 40.7316 87.7219C51.2162 87.7219 59.7156 79.2145 59.7156 68.7202C59.7156 62.5389 56.7663 57.0481 52.2 53.5779C54.1512 53.0311 55.5813 51.2489 55.5813 49.1347C55.5813 48.8855 55.5611 48.6411 55.5228 48.4026C61.7807 52.9746 65.8476 60.3713 65.8476 68.7202C65.8476 76.0073 62.7499 82.5705 57.8008 87.1619C53.3202 91.3186 47.3224 93.8597 40.7316 93.8597C34.2112 93.8597 28.2715 91.3724 23.8069 87.2942C26.1716 87.2173 28.089 85.3836 28.2805 83.0637V83.0637Z" fill="#01FF5F"/>
<path d="M23.2867 85.8809C25.0531 85.8809 26.4851 84.4576 26.4851 82.7019C26.4851 80.9462 25.0531 79.5229 23.2867 79.5229C21.5202 79.5229 20.0883 80.9462 20.0883 82.7019C20.0883 84.4576 21.5202 85.8809 23.2867 85.8809Z" fill="#373435"/>
<path d="M18.7198 77.4038C20.4862 77.4038 21.9182 75.9806 21.9182 74.2249C21.9182 72.4692 20.4862 71.0459 18.7198 71.0459C16.9533 71.0459 15.5214 72.4692 15.5214 74.2249C15.5214 75.9806 16.9533 77.4038 18.7198 77.4038Z" fill="#4B4B4D"/>
<path d="M50.7241 52.2681C52.4905 52.2681 53.9225 50.8448 53.9225 49.0891C53.9225 47.3334 52.4905 45.9102 50.7241 45.9102C48.9576 45.9102 47.5256 47.3334 47.5256 49.0891C47.5256 50.8448 48.9576 52.2681 50.7241 52.2681Z" fill="#A9ABAE"/>
<path d="M18.4421 67.3936C20.2085 67.3936 21.6405 65.9703 21.6405 64.2146C21.6405 62.4589 20.2085 61.0356 18.4421 61.0356C16.6756 61.0356 15.2437 62.4589 15.2437 64.2146C15.2437 65.9703 16.6756 67.3936 18.4421 67.3936Z" fill="#606062"/>
<path d="M22.5751 58.4773C24.3416 58.4773 25.7736 57.054 25.7736 55.2983C25.7736 53.5427 24.3416 52.1194 22.5751 52.1194C20.8087 52.1194 19.3767 53.5427 19.3767 55.2983C19.3767 57.054 20.8087 58.4773 22.5751 58.4773Z" fill="#727376"/>
<path d="M30.2779 52.0767C32.0443 52.0767 33.4763 50.6534 33.4763 48.8977C33.4763 47.142 32.0443 45.7188 30.2779 45.7188C28.5115 45.7188 27.0795 47.142 27.0795 48.8977C27.0795 50.6534 28.5115 52.0767 30.2779 52.0767Z" fill="#848688"/>
<path d="M40.3189 49.8504C42.0853 49.8504 43.5173 48.4271 43.5173 46.6714C43.5173 44.9157 42.0853 43.4924 40.3189 43.4924C38.5525 43.4924 37.1205 44.9157 37.1205 46.6714C37.1205 48.4271 38.5525 49.8504 40.3189 49.8504Z" fill="#96989A"/>
<path fill-rule="evenodd" clip-rule="evenodd" d="M30.8217 73.1604C31.3515 71.694 32.4857 71.3257 33.5943 71.3218L36.2977 71.3116L36.3208 77.5111C36.3099 78.7739 36.0228 80.3963 34.525 80.7162C38.1419 82.6194 42.1376 80.9417 42.1713 77.4894L42.1485 71.2898L44.2869 71.282C49.7987 71.1719 51.431 66.9797 51.5543 64.1728C51.7401 59.9388 48.5081 56.3173 43.7443 56.483C40.3227 56.6019 36.2734 58.663 36.2069 64.5289H42.1155C42.4401 62.9211 43.1659 62.4038 44.1683 62.4683C45.5444 62.5569 46.3147 64.5261 44.2651 65.3653C40.7009 65.3785 37.1366 65.3917 33.5725 65.4049C30.2408 66.2217 29.1232 69.6403 30.8217 73.1604V73.1604Z" fill="#373435"/>
<path d="M71.2915 1H8.70845C4.45119 1 1 4.44875 1 8.70301V131.297C1 135.551 4.45119 139 8.70845 139H71.2915C75.5488 139 79 135.551 79 131.297V8.70301C79 4.44875 75.5488 1 71.2915 1Z" stroke="#373435" stroke-width="1.5" stroke-miterlimit="22.9256"/>
<path d="M73.0328 16.3328H6.5415V121.537H73.0328V16.3328Z" stroke="#373435" stroke-width="1.5" stroke-miterlimit="22.9256"/>
<path d="M48.2143 8.4248H31.3542C30.3717 8.4248 29.5753 8.8494 29.5753 9.37316C29.5753 9.89693 30.3717 10.3215 31.3542 10.3215H48.2143C49.1968 10.3215 49.9932 9.89693 49.9932 9.37316C49.9932 8.8494 49.1968 8.4248 48.2143 8.4248Z" stroke="#373435" stroke-width="1.5" stroke-miterlimit="22.9256"/>
<path d="M39.328 134.418C41.7475 134.418 43.7088 132.458 43.7088 130.041C43.7088 127.623 41.7475 125.663 39.328 125.663C36.9086 125.663 34.9473 127.623 34.9473 130.041C34.9473 132.458 36.9086 134.418 39.328 134.418Z" stroke="#373435" stroke-width="1.5" stroke-miterlimit="22.9256"/>
<defs>
<clipPath id="clip0">
<path d="M137 12.4019L191.299 66.7006L137 120.999L82.7017 66.7006L137 12.4019Z" fill="white"/>
</clipPath>
</defs>
</svg>
