<svg width="113" height="81" viewBox="0 0 113 81" fill="none" xmlns="http://www.w3.org/2000/svg">
<path fill-rule="evenodd" clip-rule="evenodd" d="M35.6565 39.2879H78.0608V17.1655C68.9558 -4.03083 44.2776 -4.7432 35.6565 17.1655V39.2879Z" fill="#373435" stroke="#373435" stroke-width="0.2" stroke-miterlimit="22.9256"/>
<path fill-rule="evenodd" clip-rule="evenodd" d="M41.9349 33.6201H71.7843V18.0469C65.3752 3.12634 48.0034 2.62504 41.9349 18.0469V33.6201Z" fill="#FEFEFE" stroke="#373435" stroke-width="0.2" stroke-miterlimit="22.9256"/>
<path d="M78.632 33.7466H35.0869C30.4492 33.7466 26.6897 36.1643 26.6897 39.1467V41.3867C26.6897 44.3691 30.4492 46.7869 35.0869 46.7869H78.632C83.2696 46.7869 87.0292 44.3691 87.0292 41.3867V39.1467C87.0292 36.1643 83.2696 33.7466 78.632 33.7466Z" fill="#373435" stroke="#373435" stroke-width="0.2" stroke-miterlimit="22.9256"/>
<path d="M87.1562 39.5701H26.5607V47.04H87.1562V39.5701Z" fill="#373435" stroke="#373435" stroke-width="0.2" stroke-miterlimit="22.9256"/>
<path d="M56.7304 51.218C59.4542 51.218 61.6624 49.2057 61.6624 46.7235C61.6624 44.2413 59.4542 42.229 56.7304 42.229C54.0066 42.229 51.7985 44.2413 51.7985 46.7235C51.7985 49.2057 54.0066 51.218 56.7304 51.218Z" fill="#FEFEFE"/>
<path d="M101.247 50.3203H11.3092C6.16789 50.3203 2 54.4393 2 59.5204V69.8C2 74.881 6.16789 79 11.3092 79H101.247C106.389 79 110.557 74.881 110.557 69.8V59.5204C110.557 54.4393 106.389 50.3203 101.247 50.3203Z" stroke="#373435" stroke-width="3" stroke-miterlimit="22.9256"/>
<path d="M18.2045 59.1211L28.5238 69.2602" stroke="#373435" stroke-width="2" stroke-miterlimit="22.9256"/>
<path d="M18.235 69.2897L28.4944 59.0913" stroke="#373435" stroke-width="2" stroke-miterlimit="22.9256"/>
<path d="M16.0895 64.2114L30.6407 64.1699" stroke="#373435" stroke-width="2" stroke-miterlimit="22.9256"/>
<path d="M23.3851 71.3803L23.3431 56.9998" stroke="#373435" stroke-width="2" stroke-miterlimit="22.9256"/>
<path d="M40.5476 59.1211L50.8664 69.2602" stroke="#373435" stroke-width="2" stroke-miterlimit="22.9256"/>
<path d="M40.578 69.2897L50.838 59.0913" stroke="#373435" stroke-width="2" stroke-miterlimit="22.9256"/>
<path d="M38.4325 64.2114L52.9837 64.1699" stroke="#373435" stroke-width="2" stroke-miterlimit="22.9256"/>
<path d="M45.7293 71.3803L45.6873 56.9998" stroke="#373435" stroke-width="2" stroke-miterlimit="22.9256"/>
<path d="M62.4241 59.1211L72.7429 69.2602" stroke="#373435" stroke-width="2" stroke-miterlimit="22.9256"/>
<path d="M62.4545 69.2897L72.7145 59.0913" stroke="#373435" stroke-width="2" stroke-miterlimit="22.9256"/>
<path d="M60.309 64.2114L74.8607 64.1699" stroke="#373435" stroke-width="2" stroke-miterlimit="22.9256"/>
<path d="M67.6057 71.3803L67.5638 56.9998" stroke="#373435" stroke-width="2" stroke-miterlimit="22.9256"/>
<path d="M85.5253 70.752H96.3754" stroke="#373435" stroke-width="2" stroke-miterlimit="22.9256"/>
</svg>
