<svg width="80" height="154" viewBox="0 0 80 154" fill="none" xmlns="http://www.w3.org/2000/svg">
<path d="M71.7294 1H8.27062C4.25517 1 1 4.26897 1 8.30144V110.774C1 114.806 4.25517 118.075 8.27062 118.075H71.7294C75.7448 118.075 79 114.806 79 110.774V8.30144C79 4.26897 75.7448 1 71.7294 1Z" stroke="#373435" stroke-width="2" stroke-miterlimit="22.9256"/>
<path d="M67.817 16.1602H11.903V48.166H67.817V16.1602Z" stroke="#373435" stroke-width="2" stroke-miterlimit="22.9256"/>
<path d="M22.9834 57.1501H13.327C12.5969 57.1501 12.005 57.7445 12.005 58.4777V63.1218C12.005 63.855 12.5969 64.4494 13.327 64.4494H22.9834C23.7135 64.4494 24.3054 63.855 24.3054 63.1218V58.4777C24.3054 57.7445 23.7135 57.1501 22.9834 57.1501Z" stroke="#373435" stroke-width="1.5" stroke-miterlimit="22.9256"/>
<path d="M22.9834 71.7542H13.327C12.5969 71.7542 12.005 72.3485 12.005 73.0818V77.7258C12.005 78.459 12.5969 79.0534 13.327 79.0534H22.9834C23.7135 79.0534 24.3054 78.459 24.3054 77.7258V73.0818C24.3054 72.3485 23.7135 71.7542 22.9834 71.7542Z" stroke="#373435" stroke-width="1.5" stroke-miterlimit="22.9256"/>
<path d="M22.9834 85.6924H13.327C12.5969 85.6924 12.005 86.2868 12.005 87.02V91.6641C12.005 92.3973 12.5969 92.9917 13.327 92.9917H22.9834C23.7135 92.9917 24.3054 92.3973 24.3054 91.6641V87.02C24.3054 86.2868 23.7135 85.6924 22.9834 85.6924Z" stroke="#373435" stroke-width="1.5" stroke-miterlimit="22.9256"/>
<path d="M65.9468 57.1501H56.2904C55.5603 57.1501 54.9684 57.7445 54.9684 58.4777V63.1218C54.9684 63.855 55.5603 64.4494 56.2904 64.4494H65.9468C66.6769 64.4494 67.2688 63.855 67.2688 63.1218V58.4777C67.2688 57.7445 66.6769 57.1501 65.9468 57.1501Z" stroke="#373435" stroke-width="1.5" stroke-miterlimit="22.9256"/>
<path d="M65.9468 71.7542H56.2904C55.5603 71.7542 54.9684 72.3485 54.9684 73.0818V77.7258C54.9684 78.459 55.5603 79.0534 56.2904 79.0534H65.9468C66.6769 79.0534 67.2688 78.459 67.2688 77.7258V73.0818C67.2688 72.3485 66.6769 71.7542 65.9468 71.7542Z" stroke="#373435" stroke-width="1.5" stroke-miterlimit="22.9256"/>
<path d="M65.9468 85.6924H56.2904C55.5603 85.6924 54.9684 86.2868 54.9684 87.02V91.6641C54.9684 92.3973 55.5603 92.9917 56.2904 92.9917H65.9468C66.6769 92.9917 67.2688 92.3973 67.2688 91.6641V87.02C67.2688 86.2868 66.6769 85.6924 65.9468 85.6924Z" stroke="#373435" stroke-width="1.5" stroke-miterlimit="22.9256"/>
<path d="M44.796 57.1501H35.1396C34.4095 57.1501 33.8176 57.7445 33.8176 58.4777V63.1218C33.8176 63.855 34.4095 64.4494 35.1396 64.4494H44.796C45.5262 64.4494 46.118 63.855 46.118 63.1218V58.4777C46.118 57.7445 45.5262 57.1501 44.796 57.1501Z" stroke="#373435" stroke-width="1.5" stroke-miterlimit="22.9256"/>
<path d="M44.796 71.7542H35.1396C34.4095 71.7542 33.8176 72.3485 33.8176 73.0818V77.7258C33.8176 78.459 34.4095 79.0534 35.1396 79.0534H44.796C45.5262 79.0534 46.118 78.459 46.118 77.7258V73.0818C46.118 72.3485 45.5262 71.7542 44.796 71.7542Z" stroke="#373435" stroke-width="1.5" stroke-miterlimit="22.9256"/>
<path d="M44.796 85.6924H35.1396C34.4095 85.6924 33.8176 86.2868 33.8176 87.02V91.6641C33.8176 92.3973 34.4095 92.9917 35.1396 92.9917H44.796C45.5262 92.9917 46.118 92.3973 46.118 91.6641V87.02C46.118 86.2868 45.5262 85.6924 44.796 85.6924Z" stroke="#373435" stroke-width="1.5" stroke-miterlimit="22.9256"/>
<path d="M21.2663 105.897H13.0372C12.6724 105.897 12.3766 106.119 12.3766 106.393C12.3766 106.666 12.6724 106.888 13.0372 106.888H21.2663C21.6312 106.888 21.927 106.666 21.927 106.393C21.927 106.119 21.6312 105.897 21.2663 105.897Z" stroke="#373435" stroke-width="1.5" stroke-miterlimit="22.9256"/>
<path d="M36.4689 105.897H28.2397C27.8749 105.897 27.5791 106.119 27.5791 106.393C27.5791 106.666 27.8749 106.888 28.2397 106.888H36.4689C36.8337 106.888 37.1295 106.666 37.1295 106.393C37.1295 106.119 36.8337 105.897 36.4689 105.897Z" stroke="#373435" stroke-width="1.5" stroke-miterlimit="22.9256"/>
<path d="M51.0112 105.897H42.7821C42.4172 105.897 42.1215 106.119 42.1215 106.393C42.1215 106.666 42.4172 106.888 42.7821 106.888H51.0112C51.3761 106.888 51.6719 106.666 51.6719 106.393C51.6719 106.119 51.3761 105.897 51.0112 105.897Z" stroke="#373435" stroke-width="1.5" stroke-miterlimit="22.9256"/>
<path d="M66.2139 105.897H57.9847C57.6199 105.897 57.3241 106.119 57.3241 106.393C57.3241 106.666 57.6199 106.888 57.9847 106.888H66.2139C66.5787 106.888 66.8745 106.666 66.8745 106.393C66.8745 106.119 66.5787 105.897 66.2139 105.897Z" stroke="#373435" stroke-width="1.5" stroke-miterlimit="22.9256"/>
<path d="M60.8624 118.01V149.519C60.8624 150.486 60.4693 151.366 59.8361 152.002C59.1964 152.637 58.323 153.033 57.3638 153.033H20.257C19.2985 153.033 18.4251 152.637 17.7911 152.002L17.7853 151.996C17.1528 151.36 16.759 150.483 16.759 149.519V118.01H19.7896V149.519C19.7896 149.65 19.8423 149.769 19.9252 149.853C20.0096 149.937 20.1279 149.989 20.257 149.989H57.3638C57.4936 149.989 57.6119 149.937 57.6955 149.853C57.7777 149.765 57.8311 149.647 57.8311 149.519V118.01H60.8624Z" fill="#373435"/>
<path d="M60.8624 118.01V149.519C60.8624 150.486 60.4693 151.366 59.8361 152.002C59.1964 152.637 58.323 153.033 57.3638 153.033H20.257C19.2985 153.033 18.4251 152.637 17.7911 152.002L17.7853 151.996C17.1528 151.36 16.759 150.483 16.759 149.519V118.01H19.7896V149.519C19.7896 149.65 19.8423 149.769 19.9252 149.853C20.0096 149.937 20.1279 149.989 20.257 149.989H57.3638C57.4936 149.989 57.6119 149.937 57.6955 149.853C57.7777 149.765 57.8311 149.647 57.8311 149.519V118.01H60.8624Z" stroke="#373435"/>
<path d="M38.3397 127.437H32.8844C32.6422 127.437 32.4459 127.659 32.4459 127.933C32.4459 128.206 32.6422 128.428 32.8844 128.428H38.3397C38.5819 128.428 38.7782 128.206 38.7782 127.933C38.7782 127.659 38.5819 127.437 38.3397 127.437Z" stroke="#373435" stroke-width="1.5" stroke-miterlimit="22.9256"/>
<path d="M38.3397 136.066H32.8844C32.6422 136.066 32.4459 136.288 32.4459 136.562C32.4459 136.835 32.6422 137.057 32.8844 137.057H38.3397C38.5819 137.057 38.7782 136.835 38.7782 136.562C38.7782 136.288 38.5819 136.066 38.3397 136.066Z" stroke="#373435" stroke-width="1.5" stroke-miterlimit="22.9256"/>
<path d="M38.3397 144.696H32.8844C32.6422 144.696 32.4459 144.917 32.4459 145.191C32.4459 145.465 32.6422 145.686 32.8844 145.686H38.3397C38.5819 145.686 38.7782 145.465 38.7782 145.191C38.7782 144.917 38.5819 144.696 38.3397 144.696Z" stroke="#373435" stroke-width="1.5" stroke-miterlimit="22.9256"/>
<path d="M46.7915 118.349H44.6394V152.03H46.7915V118.349Z" fill="#373435" stroke="#373435" stroke-width="0.2" stroke-miterlimit="22.9256"/>
<path d="M54.0619 118.349H51.9098V152.03H54.0619V118.349Z" fill="#373435" stroke="#373435" stroke-width="0.2" stroke-miterlimit="22.9256"/>
</svg>
