<svg width="227" height="189" viewBox="0 0 227 189" fill="none" xmlns="http://www.w3.org/2000/svg">
<g clip-path="url(#clip0)">
<path d="M162.17 42.7883H160.557C160.239 42.7883 159.981 43.0471 159.981 43.3662V65.0745C159.981 65.3937 160.239 65.6524 160.557 65.6524H162.17C162.488 65.6524 162.746 65.3937 162.746 65.0745V43.3662C162.746 43.0471 162.488 42.7883 162.17 42.7883Z" fill="#3F3D56"/>
<path d="M151.666 0H78.7808C73.365 0 68.9747 4.40516 68.9747 9.83919V178.782C68.9747 184.216 73.365 188.621 78.7808 188.621H151.666C157.082 188.621 161.473 184.216 161.473 178.782V9.83919C161.473 4.40516 157.082 0 151.666 0Z" fill="#3F3D56"/>
<path d="M148.598 4.91309H137.988V6.19377C137.988 6.99095 137.831 7.78031 137.527 8.51677C137.223 9.25322 136.777 9.92233 136.215 10.4859C135.653 11.0494 134.986 11.4963 134.252 11.8011C133.518 12.1059 132.731 12.2625 131.937 12.2621H98.1926C97.3981 12.2625 96.6113 12.1059 95.8771 11.8011C95.143 11.4963 94.4759 11.0494 93.9139 10.4859C93.352 9.92233 92.9062 9.25322 92.6021 8.51677C92.2979 7.78031 92.1414 6.99095 92.1414 6.19377V4.91309H82.2069C80.2586 4.91309 78.3901 5.68966 77.0124 7.07198C75.6347 8.4543 74.8607 10.3291 74.8607 12.284V176.35C74.8607 178.305 75.6347 180.18 77.0124 181.562C78.3901 182.945 80.2586 183.721 82.2069 183.721H148.598C150.547 183.721 152.415 182.945 153.793 181.562C155.171 180.18 155.945 178.305 155.945 176.35V12.2966C155.946 11.3276 155.758 10.3678 155.389 9.47203C155.021 8.57629 154.48 7.76223 153.797 7.07644C153.115 6.39065 152.305 5.84658 151.413 5.47537C150.521 5.10416 149.564 4.91308 148.598 4.91309Z" fill="white"/>
<path d="M118.245 5.63306H107.275C106.737 5.63306 106.301 6.0703 106.301 6.60966V7.28672C106.301 7.82608 106.737 8.26332 107.275 8.26332H118.245C118.782 8.26332 119.218 7.82608 119.218 7.28672V6.60966C119.218 6.0703 118.782 5.63306 118.245 5.63306Z" fill="#E6E8EC"/>
<path d="M122.66 8.44193C123.483 8.44193 124.149 7.77319 124.149 6.94826C124.149 6.12333 123.483 5.45459 122.66 5.45459C121.838 5.45459 121.172 6.12333 121.172 6.94826C121.172 7.77319 121.838 8.44193 122.66 8.44193Z" fill="#E6E8EC"/>
<path d="M115.789 114.183C125.452 114.183 133.286 106.323 133.286 96.6264C133.286 86.9301 125.452 79.0696 115.789 79.0696C106.125 79.0696 98.2906 86.9301 98.2906 96.6264C98.2906 106.323 106.125 114.183 115.789 114.183Z" fill="white"/>
<path d="M138.803 94.1749C138.803 98.8159 137.431 103.353 134.861 107.211C132.292 111.07 128.639 114.078 124.366 115.854C120.092 117.63 115.39 118.094 110.853 117.189C106.317 116.283 102.15 114.048 98.8792 110.766C95.6086 107.484 93.3814 103.303 92.4791 98.7513C91.5769 94.1994 92.0402 89.4813 93.8104 85.1936C95.5806 80.9059 98.5783 77.2412 102.424 74.663C106.27 72.0847 110.792 70.7086 115.417 70.7087C118.489 70.7088 121.53 71.3159 124.367 72.4952C127.204 73.6746 129.782 75.4031 131.954 77.5821C134.126 79.7612 135.848 82.348 137.023 85.195C138.199 88.042 138.803 91.0934 138.803 94.1749ZM112.714 106.596L130.062 89.1892C130.202 89.0487 130.314 88.8818 130.39 88.6981C130.466 88.5143 130.505 88.3173 130.505 88.1183C130.505 87.9194 130.466 87.7224 130.39 87.5386C130.314 87.3549 130.202 87.188 130.062 87.0475L127.927 84.9214C127.788 84.7807 127.622 84.6689 127.439 84.5927C127.256 84.5165 127.06 84.4773 126.862 84.4773C126.664 84.4773 126.468 84.5165 126.285 84.5927C126.102 84.6689 125.936 84.7807 125.796 84.9214L111.647 99.1185L105.04 92.4741C104.757 92.1911 104.373 92.0322 103.973 92.0322C103.573 92.0322 103.189 92.1911 102.906 92.4741L100.771 94.6284C100.489 94.9129 100.331 95.2979 100.331 95.6992C100.331 96.1005 100.489 96.4855 100.771 96.7701L110.58 106.608C110.72 106.749 110.886 106.861 111.069 106.937C111.253 107.013 111.449 107.053 111.647 107.053C111.845 107.053 112.042 107.013 112.225 106.937C112.408 106.861 112.574 106.749 112.714 106.608L112.714 106.596Z" fill="#01FF5F"/>
<path d="M71.8706 37.1858H71.6284C71.3103 37.1858 71.0525 37.4445 71.0525 37.7637V43.3742C71.0525 43.6934 71.3103 43.9521 71.6284 43.9521H71.8706C72.1887 43.9521 72.4466 43.6934 72.4466 43.3742V37.7637C72.4466 37.4445 72.1887 37.1858 71.8706 37.1858Z" fill="#3F3D56"/>
<path d="M71.997 49.5757H71.578C71.2599 49.5757 71.002 49.8344 71.002 50.1536V60.774C71.002 61.0932 71.2599 61.3519 71.578 61.3519H71.997C72.3151 61.3519 72.5729 61.0932 72.5729 60.774V50.1536C72.5729 49.8344 72.3151 49.5757 71.997 49.5757Z" fill="#3F3D56"/>
<path d="M71.9464 65.4724H71.6031C71.285 65.4724 71.0272 65.7311 71.0272 66.0503V76.772C71.0272 77.0911 71.285 77.3499 71.6031 77.3499H71.9464C72.2645 77.3499 72.5223 77.0911 72.5223 76.772V66.0503C72.5223 65.7311 72.2645 65.4724 71.9464 65.4724Z" fill="#3F3D56"/>
<path d="M52.4993 96.8804C52.5392 96.9191 52.5906 96.9438 52.6457 96.9509C52.7008 96.958 52.7567 96.9471 52.8051 96.9197C52.7018 96.9213 52.5988 96.9081 52.4993 96.8804Z" fill="url(#paint0_linear)"/>
<path d="M64.0592 101.417L63.7574 103.067L63.5245 104.329L63.101 106.637L58.9941 109.521C58.9941 109.521 58.6239 109.204 58.0133 108.702C56.3302 107.312 52.7928 104.481 50.1952 102.961C49.5271 102.533 48.8042 102.199 48.0464 101.967L64.0592 101.417Z" fill="#FEB9B9"/>
<path d="M61.0463 102.645C61.0463 102.645 65.8347 103.469 66.1151 101.417C66.3955 99.3656 63.6504 98.2568 61.3239 98.1188C58.9975 97.9807 45.0345 98.9434 45.0345 98.9434C45.0345 98.9434 42.5715 102.239 51.4667 102.791L61.0463 102.645Z" fill="#3F3D56"/>
<path d="M71.518 34.937H46.4681V64.7407H71.518V34.937Z" fill="#2F2E41"/>
<path opacity="0.1" d="M71.518 35.0723H46.4681V64.876H71.518V35.0723Z" fill="black"/>
<path d="M17.1098 85.9568C16.6973 86.061 16.1702 86.4615 15.5839 87.0404C13.0593 89.5483 9.44342 95.4336 9.44342 95.4336C4.82051 89.9084 9.93611 85.543 12.1167 84.0427C12.6468 83.6796 13.003 83.4797 13.003 83.4797L17.1098 85.9568Z" fill="#FEB9B9"/>
<path d="M63.7842 44.3433C63.7842 44.3433 65.0166 52.9954 69.2597 55.0556C73.5029 57.1158 63.7842 60.9662 63.7842 60.9662L50.5075 56.0181C50.5075 56.0181 58.0366 53.545 56.53 46.2654L63.7842 44.3433Z" fill="#FEB9B9"/>
<path d="M49.5484 96.3962L49.2481 98.0401L49.0042 99.3066L48.5806 101.615L44.4738 104.497C44.4738 104.497 44.1036 104.182 43.4929 103.681C41.8099 102.29 38.2727 99.4588 35.6711 97.9389C35.0033 97.511 34.2803 97.1767 33.5223 96.9454L49.5484 96.3962Z" fill="#FEB9B9"/>
<path d="M45.9959 98.4234C45.9959 98.4234 50.2933 98.4539 50.5519 96.3962C50.8104 94.3385 48.2099 93.2355 45.9959 93.0975C43.7819 92.9594 30.3299 93.9863 30.3299 93.9863C30.3299 93.9863 28.4214 97.8725 36.8828 98.4231L45.9959 98.4234Z" fill="#2F2E41"/>
<path d="M76.1269 130.748C75.939 130.655 75.7509 130.56 75.5658 130.467L75.0607 129.828L68.4379 121.401V121.547C68.3931 122.955 67.9162 134.106 64.1965 135.136C60.2272 136.234 55.4388 136.51 53.256 129.093C51.0732 121.677 47.0848 105.471 42.9891 104.508L49.0818 99.4954C49.0818 99.4954 53.1157 104.23 54.7592 108.761C54.6976 108.48 51.912 95.4199 54.1981 93.1091H74.1865C74.1865 93.1091 77.2722 101.927 79.3871 106.296C81.0337 109.687 83.505 117.706 85.0963 123.132C86.6714 128.491 81.1368 133.222 76.1269 130.748Z" fill="#3F3D56"/>
<path opacity="0.1" d="M75.5576 95.5715C72.4719 97.4038 58.9258 96.6578 54.519 96.3596L53.3183 96.2723C53.1893 96.2723 53.3379 96.1991 53.3379 96.1991L53.4614 94.9522L56.7463 86.5759L74.3345 76.342C73.9782 77.4201 73.8604 79.0695 73.8886 80.9581C73.9699 87.0263 75.5576 95.5715 75.5576 95.5715Z" fill="black"/>
<path d="M75.5575 95.1579C72.4718 96.9902 58.9258 96.2443 54.5189 95.946L53.3182 95.8614L53.119 95.8445L53.3378 95.7883L54.4206 95.5069L56.746 86.1681L74.3342 75.937C73.9781 77.0151 73.8601 78.6644 73.8883 80.553C73.9698 86.6155 75.5575 95.1579 75.5575 95.1579Z" fill="#EFEFEF"/>
<path opacity="0.1" d="M73.8772 80.5472C70.3006 81.3747 62.4295 83.8026 59.4054 89.6664C57.3886 93.5703 55.6914 95.2449 54.5076 95.9457L53.3069 95.8612C53.3147 95.8372 53.3213 95.8127 53.3265 95.788L54.4092 95.5066L56.7346 86.1678L74.3229 75.937C73.9708 77.0093 73.8491 78.6586 73.8772 80.5472Z" fill="black"/>
<path opacity="0.1" d="M13.0029 83.4858L17.1097 85.9571C16.6972 86.0613 16.1701 86.4618 15.5838 87.0407C15.2415 86.0386 13.0939 84.6398 12.1166 84.0433C12.6465 83.6857 13.0029 83.4858 13.0029 83.4858Z" fill="black"/>
<path opacity="0.1" d="M52.5749 96.0218C52.5299 96.0453 52.4787 96.0542 52.4284 96.0471C52.3782 96.0401 52.3313 96.0174 52.2945 95.9824C52.3856 96.0092 52.48 96.0225 52.5749 96.0218Z" fill="black"/>
<path d="M61.8685 54.5067C61.8685 54.5067 58.1714 54.9175 55.5711 52.1707C55.5711 52.1707 44.6306 55.3314 40.9254 62.4719C37.2203 69.6125 12.0323 83.6235 12.0323 83.6235C12.0323 83.6235 16.414 86.0948 16.0015 87.3303L32.5659 77.7157C32.5659 77.7157 38.4567 73.4601 40.0922 72.4976C41.7277 71.5351 50.7713 65.6301 52.6873 81.6986C54.6033 97.7671 52.6873 95.8447 52.6873 95.8447C52.6873 95.8447 55.4252 96.8074 59.3944 89.115C63.3637 81.4225 75.6811 79.6381 75.6811 79.6381L76.3655 71.5377C76.3655 71.5377 78.8088 66.1674 76.9266 63.9383C76.3563 63.2783 75.977 62.4743 75.8298 61.6134C75.5184 59.556 75.8298 56.1278 80.1889 53.2795C86.896 48.8831 89.4963 45.3143 89.4963 45.3143C89.4963 45.3143 89.6336 42.7025 85.527 41.4667C81.4205 40.2309 64.7213 33.5015 64.7213 33.5015L64.1602 35.8375L77.336 45.1679C77.336 45.1679 70.7665 50.5155 65.5545 50.3861C65.5543 50.3861 66.5221 54.3687 61.8685 54.5067Z" fill="#01FF5F"/>
<path opacity="0.1" d="M64.4043 48.1092C64.0806 47.0082 63.8277 45.8876 63.6471 44.7542L56.3929 46.6771C56.7127 48.0666 56.6556 49.5167 56.2274 50.8765C57.7105 51.2735 59.2775 51.2228 60.732 50.7305C62.1865 50.2383 63.4639 49.3265 64.4043 48.1092Z" fill="black"/>
<path d="M58.379 50.7298C62.6875 50.7298 66.1802 47.2254 66.1802 42.9024C66.1802 38.5794 62.6875 35.075 58.379 35.075C54.0705 35.075 50.5778 38.5794 50.5778 42.9024C50.5778 47.2254 54.0705 50.7298 58.379 50.7298Z" fill="#FEB9B9"/>
<path opacity="0.1" d="M66.8644 105.94C66.8644 105.94 71.3806 114.868 70.0117 117.612L66.8644 105.94Z" fill="black"/>
<path d="M62.5276 24.8242C64.693 25.072 66.7493 26.0034 68.8813 26.5129C69.4142 26.6791 69.9814 26.7004 70.5252 26.5747C71.3526 26.3186 72.0259 25.449 72.8843 25.4742C73.4125 25.4911 73.88 25.8515 74.3149 26.1975C75.0121 26.7329 75.6684 27.32 76.2784 27.9538C77.7482 29.5553 78.6599 31.7113 80.0006 33.4536C81.3414 35.1958 83.2536 37.2389 85.1582 36.4399C83.8625 41.5061 79.8211 44.6754 75.2293 44.9908C73.3976 45.117 71.5209 44.7347 69.748 45.2722C69.3065 45.4539 68.8401 45.5677 68.3648 45.6099C67.3436 45.6099 66.5217 44.6699 65.8849 43.7551C64.3925 41.6048 63.2117 39.1646 61.5314 37.2028C60.9703 36.5527 60.3224 35.9362 59.5369 35.8181C58.7515 35.7 58.0307 36.077 57.3322 36.4402C56.1793 37.0398 55.0013 37.6588 54.1064 38.6919C53.2116 39.725 52.6477 41.2502 53.0179 42.6324C53.2171 43.3811 53.6718 44.0566 53.6799 44.8389C53.6967 46.0886 52.5972 47.0006 52.3811 48.2164C52.3323 48.7271 52.3145 49.2403 52.3278 49.7532C52.2325 51.4188 51.1457 52.7815 50.0139 53.8315C49.5708 54.2368 49.0834 54.6759 48.9536 55.3035C48.8666 55.734 48.9536 56.1867 48.8975 56.6235C48.732 57.7043 47.6576 58.2532 46.7067 58.394C45.5956 58.5591 44.4608 58.4241 43.419 58.0029C44.7487 57.372 45.5678 55.5768 45.2592 53.9695C44.8357 51.7402 42.6029 50.1388 42.7945 47.8704C42.8995 47.1744 43.1075 46.4981 43.4117 45.8637C43.8983 44.6379 44.2519 43.3631 44.4665 42.0613C44.6348 41.0564 44.7162 39.9897 44.4019 39.0301C44.1214 38.1574 43.5352 37.4624 43.0385 36.7248C42.3654 35.7214 41.8339 34.6293 41.4593 33.4796C41.3235 33.1385 41.2717 32.7697 41.3084 32.4043C41.4209 31.9728 41.6604 31.5853 41.9957 31.2924C43.216 30.0055 44.5203 28.6692 46.1559 28.3006C46.9362 28.1706 47.7298 28.1403 48.5177 28.2105C49.8881 28.2536 51.2598 28.1952 52.6216 28.0358C53.7435 27.9036 55.6396 27.9205 56.5908 27.1915C57.4771 26.5101 57.9766 25.6547 59.0676 25.2214C60.1725 24.8104 61.3603 24.6742 62.5291 24.8244L62.5276 24.8242Z" fill="#2F2E41"/>
<path d="M207.482 188.153C213.732 188.153 218.799 187.293 218.799 186.233C218.799 185.172 213.732 184.312 207.482 184.312C201.232 184.312 196.166 185.172 196.166 186.233C196.166 187.293 201.232 188.153 207.482 188.153Z" fill="#01FF5F"/>
<path d="M212.162 183.093C212.678 182.67 213.054 182.1 213.24 181.458C213.381 180.811 213.105 180.045 212.486 179.795C211.793 179.529 211.052 180.012 210.493 180.498C209.934 180.983 209.289 181.54 208.554 181.435C208.932 181.092 209.215 180.657 209.376 180.171C209.536 179.686 209.569 179.167 209.47 178.665C209.437 178.457 209.348 178.262 209.214 178.1C208.831 177.688 208.132 177.863 207.674 178.191C206.211 179.221 205.803 181.219 205.794 183.011C205.645 182.364 205.771 181.689 205.766 181.034C205.76 180.379 205.583 179.621 205.023 179.275C204.677 179.089 204.289 178.997 203.897 179.009C203.239 178.984 202.507 179.052 202.057 179.534C201.494 180.133 201.646 181.138 202.13 181.793C202.614 182.449 203.354 182.869 204.035 183.324C204.58 183.65 205.044 184.095 205.393 184.626C205.435 184.7 205.469 184.779 205.494 184.86H209.606C210.533 184.389 211.393 183.795 212.161 183.094L212.162 183.093Z" fill="#01FF5F"/>
<path d="M53.6238 189C57.7484 189 61.092 188.433 61.092 187.733C61.092 187.033 57.7484 186.466 53.6238 186.466C49.4993 186.466 46.1556 187.033 46.1556 187.733C46.1556 188.433 49.4993 189 53.6238 189Z" fill="#EFEFEF"/>
<path d="M56.7125 185.661C57.0528 185.381 57.3008 185.005 57.4237 184.582C57.4779 184.369 57.4581 184.144 57.3675 183.945C57.277 183.745 57.1212 183.583 56.926 183.484C56.469 183.309 55.9806 183.627 55.6111 183.948C55.2417 184.268 54.8161 184.636 54.3315 184.567C54.581 184.34 54.7677 184.053 54.8735 183.733C54.9792 183.412 55.0005 183.07 54.9351 182.739C54.9133 182.601 54.8549 182.473 54.7661 182.366C54.5146 182.094 54.0528 182.21 53.7503 182.426C52.7845 183.107 52.5151 184.423 52.5096 185.607C52.4112 185.18 52.4947 184.735 52.491 184.302C52.4872 183.87 52.3703 183.371 52.0005 183.141C51.7725 183.019 51.5163 182.958 51.2576 182.966C50.823 182.95 50.3401 182.994 50.0428 183.313C49.6714 183.708 49.7717 184.372 50.0911 184.804C50.4105 185.236 50.8989 185.514 51.3486 185.813C51.7081 186.028 52.0147 186.321 52.2458 186.671C52.2736 186.72 52.296 186.772 52.3127 186.826H55.0261C55.638 186.515 56.2052 186.123 56.7125 185.659V185.661Z" fill="#EFEFEF"/>
<path d="M11.3882 189C15.5127 189 18.8564 188.433 18.8564 187.733C18.8564 187.033 15.5127 186.466 11.3882 186.466C7.2636 186.466 3.91998 187.033 3.91998 187.733C3.91998 188.433 7.2636 189 11.3882 189Z" fill="#EFEFEF"/>
<path d="M14.4768 185.661C14.8172 185.381 15.0651 185.005 15.1881 184.582C15.2422 184.369 15.2224 184.144 15.1319 183.945C15.0414 183.745 14.8856 183.583 14.6904 183.484C14.2334 183.309 13.7449 183.627 13.3755 183.948C13.006 184.268 12.5805 184.636 12.0958 184.567C12.3453 184.34 12.532 184.053 12.6378 183.733C12.7436 183.412 12.7648 183.07 12.6994 182.739C12.6777 182.601 12.6193 182.473 12.5304 182.366C12.2789 182.094 11.8172 182.21 11.5146 182.426C10.5488 183.107 10.2795 184.423 10.2739 185.607C10.1756 185.18 10.2591 184.735 10.2553 184.302C10.2515 183.87 10.1346 183.371 9.76489 183.141C9.53684 183.019 9.28061 182.958 9.02193 182.966C8.58733 182.95 8.10446 182.994 7.80718 183.313C7.4357 183.708 7.53604 184.372 7.85545 184.804C8.17487 185.236 8.66329 185.514 9.11298 185.813C9.47243 186.028 9.77906 186.321 10.0101 186.671C10.0379 186.72 10.0604 186.772 10.077 186.826H12.7905C13.4023 186.515 13.9696 186.123 14.4768 185.659V185.661Z" fill="#EFEFEF"/>
<path d="M227 188.277H0V188.736H227V188.277Z" fill="#2F2E41"/>
<path d="M215.919 12.75C215.919 12.75 192.222 11.3153 195.014 27.9761C195.014 27.9761 194.451 30.9213 197.119 32.257C197.119 32.257 197.162 31.023 199.551 31.4437C200.402 31.5851 201.266 31.6268 202.126 31.5678C203.287 31.4912 204.391 31.0383 205.272 30.2773C205.272 30.2773 211.934 27.5156 214.523 16.593C214.523 16.593 216.44 14.2098 216.364 13.5969L212.365 15.3108C212.365 15.3108 213.733 18.2053 212.646 20.6102C212.646 20.6102 212.517 15.4143 211.748 15.5273C211.594 15.5501 209.672 16.5297 209.672 16.5297C209.672 16.5297 212.022 21.5702 210.248 25.2358C210.248 25.2358 210.921 19.0234 208.937 16.8941L206.123 18.5432C206.123 18.5432 208.869 23.7505 207.006 28.0003C207.006 28.0003 207.484 21.4828 205.529 18.9442L202.979 20.9405C202.979 20.9405 205.56 26.0713 203.986 29.5962C203.986 29.5962 203.781 22.0113 202.427 21.4382C202.427 21.4382 200.195 23.4148 199.855 24.2224C199.855 24.2224 201.622 27.9499 200.525 29.9152C200.525 29.9152 199.852 24.8606 199.3 24.8323C199.3 24.8323 197.077 28.1813 196.846 30.4799C196.846 30.4799 196.942 27.0659 198.762 24.5161C198.762 24.5161 196.612 24.8861 195.357 26.2826C195.357 26.2826 195.703 23.9163 199.311 23.7073C199.311 23.7073 201.149 21.1659 201.639 21.0135C201.639 21.0135 198.053 20.7106 195.878 21.6799C195.878 21.6799 197.791 19.4464 202.297 20.4628L204.816 18.3986C204.816 18.3986 200.094 17.7518 198.09 18.4665C198.09 18.4665 200.395 16.4898 205.495 17.93L208.236 16.2864C208.236 16.2864 204.209 15.4166 201.811 15.7217C201.811 15.7217 204.344 14.3521 209.041 15.8375L211.011 14.9542C211.011 14.9542 208.061 14.3726 207.197 14.2795C206.333 14.1863 206.288 13.9491 206.288 13.9491C208.157 13.6365 210.075 13.8507 211.83 14.5676C211.83 14.5676 215.99 13.0127 215.919 12.75Z" fill="#01FF5F"/>
<path d="M183.451 3.92943C183.451 3.92943 172.757 3.28266 174.006 10.8111C174.006 10.8111 173.755 12.1412 174.957 12.7453C174.957 12.7453 174.977 12.1806 176.058 12.3754C176.441 12.4402 176.831 12.4592 177.22 12.4319C177.745 12.3971 178.244 12.1907 178.641 11.8444C178.641 11.8444 181.652 10.5963 182.823 5.66031C182.823 5.66031 183.687 4.58454 183.653 4.30771L181.846 5.08142C181.846 5.08142 182.463 6.38885 181.978 7.47598C181.978 7.47598 181.919 5.12911 181.573 5.18312C181.503 5.18312 180.633 5.63735 180.633 5.63735C180.633 5.63735 181.697 7.91608 180.895 9.57101C180.895 9.57101 181.199 6.7641 180.301 5.80113L179.029 6.55818C179.029 6.55818 180.27 8.91035 179.429 10.8307C179.429 10.8307 179.646 7.88555 178.762 6.73912L177.611 7.64279C177.611 7.64279 178.776 9.96114 178.067 11.5542C178.067 11.5542 177.971 8.12604 177.36 7.86637C177.36 7.86637 176.353 8.75869 176.198 9.12586C176.198 9.12586 176.997 10.8201 176.502 11.6983C176.502 11.6983 176.198 9.41379 175.939 9.40193C175.939 9.40193 174.934 10.916 174.83 11.9434C174.88 10.985 175.179 10.0564 175.697 9.24951C175.117 9.35971 174.582 9.63749 174.157 10.0487C174.157 10.0487 174.315 8.97849 175.945 8.88537C175.945 8.88537 176.789 7.73616 176.997 7.6655C176.997 7.6655 175.376 7.52999 174.394 7.96832C174.394 7.96832 175.258 6.96017 177.293 7.41769L178.418 6.48576C178.418 6.48576 176.283 6.2006 175.378 6.51503C175.378 6.51503 176.419 5.62271 178.724 6.27226L179.962 5.5296C179.962 5.5296 178.142 5.13719 177.058 5.27724C177.058 5.27724 178.203 4.65873 180.326 5.32771L181.212 4.9295C181.212 4.9295 179.879 4.6668 179.487 4.62441C179.094 4.58201 179.076 4.47476 179.076 4.47476C179.921 4.33374 180.788 4.43152 181.581 4.75715C181.581 4.75715 183.484 4.04703 183.451 3.92943Z" fill="#3F3D56"/>
<path d="M18.5288 118.86C18.5288 118.86 7.8343 118.213 9.08378 125.741C9.08378 125.741 8.83227 127.071 10.035 127.675C10.035 127.675 10.0546 127.111 11.1353 127.306C11.5191 127.37 11.9092 127.389 12.2975 127.362C12.8225 127.327 13.3216 127.121 13.7188 126.775C13.7188 126.775 16.73 125.526 17.9008 120.59C17.9008 120.59 18.7647 119.515 18.7308 119.238L16.9239 120.012C16.9239 120.012 17.5404 121.319 17.0562 122.406C17.0562 122.406 16.9971 120.059 16.651 120.113C16.5806 120.113 15.7109 120.568 15.7109 120.568C15.7109 120.568 16.7748 122.846 15.9727 124.501C15.9727 124.501 16.2766 121.694 15.3789 120.731L14.1068 121.488C14.1068 121.488 15.348 123.841 14.5065 125.761C14.5065 125.761 14.7233 122.816 13.8395 121.669L12.6883 122.573C12.6883 122.573 13.8536 124.891 13.1443 126.484C13.1443 126.484 13.0488 123.056 12.4378 122.797C12.4378 122.797 11.4303 123.689 11.2754 124.056C11.2754 124.056 12.0747 125.75 11.5795 126.628C11.5795 126.628 11.2754 124.344 11.0166 124.332C11.0166 124.332 10.0118 125.846 9.90771 126.874C9.95803 125.915 10.2569 124.987 10.7746 124.18C10.1948 124.29 9.65976 124.568 9.23518 124.979C9.23518 124.979 9.39288 123.909 11.0224 123.816C11.0224 123.816 11.8667 122.666 12.0749 122.596C12.0749 122.596 10.454 122.46 9.4716 122.898C9.4716 122.898 10.3355 121.89 12.3704 122.348L13.4962 121.416C13.4962 121.416 11.3609 121.131 10.4555 121.445C10.4555 121.445 11.4967 120.553 13.8018 121.202L15.0402 120.46C15.0402 120.46 13.2193 120.067 12.1358 120.207C12.1358 120.207 13.2811 119.589 15.4033 120.258L16.2899 119.86C16.2899 119.86 14.9569 119.597 14.5646 119.555C14.1722 119.512 14.1536 119.405 14.1536 119.405C14.9985 119.264 15.8658 119.362 16.6584 119.687C16.6584 119.687 18.5617 118.977 18.5288 118.86Z" fill="#3F3D56"/>
<g clip-path="url(#clip1)">
<path d="M127.572 121.053L126.231 115.745C123.852 114.734 121.419 113.858 118.943 113.122L118.773 115.589L118.086 112.871C115.015 111.991 112.926 111.603 112.926 111.603C112.926 111.603 115.748 122.372 121.668 130.605L128.566 131.821L123.207 132.596C123.952 133.495 124.752 134.346 125.604 135.145C134.215 143.165 143.807 146.845 147.027 143.364C150.248 139.882 145.877 130.559 137.266 122.539C134.596 120.052 131.242 118.057 127.885 116.487L127.572 121.053Z" fill="#E6E6E6"/>
<path d="M140.328 115.289L141.915 110.049C140.4 107.95 138.768 105.938 137.027 104.024L135.612 106.047L136.424 103.365C134.248 101.019 132.659 99.603 132.659 99.603C132.659 99.603 129.527 110.285 130.353 120.403L135.632 125.021L130.645 122.906C130.82 124.062 131.067 125.206 131.384 126.331C134.624 137.663 140.94 145.788 145.49 144.478C150.04 143.168 151.102 132.92 147.862 121.588C146.857 118.075 145.014 114.627 142.949 111.542L140.328 115.289Z" fill="#E6E6E6"/>
<path d="M336.282 145.266H112.946V145.832H336.282V145.266Z" fill="#3F3D56"/>
<path d="M148.231 86.7114C148.231 86.7114 146.492 107.694 146.119 112.19C145.863 115.009 145.235 117.781 144.252 120.433C144.252 120.433 143.505 121.932 143.505 123.431V142.54C143.505 142.54 142.011 142.54 142.385 144.038C142.758 145.537 143.131 148.16 143.131 148.16H148.733C148.733 148.16 148.359 147.036 149.48 146.661C150.6 146.286 149.48 143.289 149.48 143.289L155.455 120.808L164.417 102.074C164.417 102.074 169.645 118.935 170.765 120.808C170.765 120.808 174.873 141.79 175.62 143.664C176.366 145.537 176.74 145.537 176.366 146.286C175.993 147.036 175.993 147.785 176.366 148.16C176.74 148.535 183.835 148.16 183.835 148.16L181.968 121.557L178.607 89.7092L161.429 84.4636L148.231 86.7114Z" fill="#2F2E41"/>
<path d="M147.239 145.162C147.239 145.162 145.372 138.418 142.384 143.664C139.397 148.909 139.397 150.783 139.397 150.783C139.397 150.783 134.542 157.902 141.264 157.152C147.986 156.403 146.492 153.031 146.492 153.031C146.492 153.031 149.106 151.532 149.106 150.408C149.106 149.284 147.239 145.162 147.239 145.162Z" fill="#2F2E41"/>
<path d="M177.487 144.413C177.487 144.413 179.354 137.669 182.341 142.914C185.329 148.16 185.329 150.033 185.329 150.033C185.329 150.033 190.183 157.152 183.461 156.403C176.74 155.654 178.233 152.281 178.233 152.281C178.233 152.281 175.62 150.783 175.62 149.659C175.62 148.535 177.487 144.413 177.487 144.413Z" fill="#2F2E41"/>
<path d="M159.936 36.1294C159.936 36.1294 160.682 41.0003 158.442 42.1243C156.201 43.2484 163.296 47.3699 165.164 47.3699C167.031 47.3699 170.392 43.6231 170.392 43.6231C170.392 43.6231 168.524 38.0028 168.898 36.8788L159.936 36.1294Z" fill="#A0616A"/>
<path d="M164.043 39.8761C168.374 39.8761 171.885 36.3533 171.885 32.0078C171.885 27.6622 168.374 24.1394 164.043 24.1394C159.712 24.1394 156.201 27.6622 156.201 32.0078C156.201 36.3533 159.712 39.8761 164.043 39.8761Z" fill="#A0616A"/>
<path d="M179.354 48.1194L170.018 42.4443C170.018 42.4443 164.707 48.4941 158.96 41.7498L149.106 44.3725L150.6 69.851C150.6 69.851 148.359 79.9675 149.106 81.8409C149.853 83.7143 147.239 84.4637 147.986 84.8384C148.733 85.2131 147.986 87.8358 147.986 87.8358C147.986 87.8358 162.549 95.3295 178.607 89.7093L177.113 84.8384C177.316 84.2016 177.354 83.5234 177.224 82.8678C177.093 82.2122 176.798 81.6008 176.366 81.0915C176.366 81.0915 177.86 78.8434 175.993 76.97C175.993 76.97 176.74 73.5979 174.872 72.0991L174.499 66.8536L175.619 64.2308L179.354 48.1194Z" fill="#CFCCE0"/>
<path d="M160.03 28.3544C160.03 28.3544 159.095 30.3845 162.835 29.5724C162.835 29.5724 164.237 30.3845 164.237 29.1664C164.237 29.1664 166.107 31.1965 166.574 29.9785C167.042 28.7604 167.977 30.3845 167.977 30.3845L168.912 28.3544L169.847 29.5724H173.119C173.119 29.5724 174.054 21.4521 162.835 22.2641C151.616 23.0762 157.135 35.9421 157.135 35.9421C157.135 35.9421 157.225 33.6326 158.16 34.8507C159.095 36.0687 160.03 28.3544 160.03 28.3544Z" fill="#2F2E41"/>
<path d="M182.714 63.1067L183.088 70.9751C183.088 70.9751 184.582 85.5877 181.594 91.9573V95.3295C181.594 95.3295 180.847 103.947 177.113 103.573C173.379 103.198 178.233 91.208 178.233 91.208L177.486 74.7219L176.74 65.3548L182.714 63.1067Z" fill="#A0616A"/>
<path d="M175.246 48.494L178.971 47.8867C181.655 50.4737 183.482 53.8243 184.208 57.4864C185.329 63.4813 185.702 64.6054 185.702 64.6054L176.74 66.8535L171.885 57.4864L175.246 48.494Z" fill="#CFCCE0"/>
<path d="M218.137 44.218H159.207V73.5904H218.137V44.218Z" fill="white"/>
<path d="M165.642 45.9842C164.128 45.0707 162.302 45.1405 161.608 45.2103C161.872 45.8577 162.665 47.509 164.179 48.423C165.697 49.3388 167.52 49.2669 168.213 49.1976C167.949 48.5504 167.156 46.8984 165.642 45.9842Z" fill="#01FF5F"/>
<path d="M172.756 64.1113H163.293C163.014 64.111 162.736 64.1661 162.478 64.2733C162.219 64.3805 161.984 64.5378 161.786 64.7362C161.588 64.9346 161.431 65.1702 161.324 65.4295C161.217 65.6889 161.162 65.9668 161.162 66.2476C161.162 66.5283 161.217 66.8063 161.324 67.0656C161.431 67.3249 161.588 67.5605 161.786 67.7589C161.984 67.9573 162.219 68.1146 162.478 68.2219C162.736 68.3291 163.014 68.3841 163.293 68.3838H172.756C173.036 68.3841 173.313 68.3291 173.571 68.2219C173.83 68.1146 174.065 67.9573 174.263 67.7589C174.461 67.5605 174.618 67.3249 174.725 67.0656C174.832 66.8063 174.887 66.5283 174.887 66.2476C174.887 65.9668 174.832 65.6889 174.725 65.4295C174.618 65.1702 174.461 64.9346 174.263 64.7362C174.065 64.5378 173.83 64.3805 173.571 64.2733C173.313 64.1661 173.036 64.111 172.756 64.1113Z" fill="#01FF5F"/>
<path d="M215.605 41.5623H162.552C161.935 41.5623 161.324 41.6842 160.754 41.9212C160.183 42.1582 159.665 42.5055 159.229 42.9434C158.792 43.3812 158.446 43.901 158.21 44.4731C157.974 45.0452 157.852 45.6584 157.852 46.2777V72.2133C157.852 73.4639 158.348 74.6633 159.229 75.5476C160.11 76.4319 161.306 76.9287 162.552 76.9287H215.605C216.852 76.9287 218.047 76.4319 218.928 75.5476C219.81 74.6633 220.305 73.4639 220.305 72.2133V46.2777C220.305 45.6584 220.183 45.0452 219.947 44.4731C219.711 43.901 219.365 43.3812 218.928 42.9434C218.492 42.5055 217.974 42.1582 217.404 41.9212C216.834 41.6842 216.222 41.5623 215.605 41.5623ZM161.239 44.7789C161.344 44.7599 163.828 44.3357 165.885 45.5777C167.942 46.8194 168.733 49.2206 168.765 49.3221L168.849 49.581L168.582 49.6285C168.201 49.6882 167.816 49.7165 167.43 49.7134C166.208 49.7368 165.001 49.4316 163.935 48.8295C161.878 47.588 161.088 45.1868 161.056 45.0853L160.972 44.8264L161.239 44.7789ZM172.756 68.8585H163.293C162.603 68.8585 161.941 68.5834 161.453 68.0938C160.965 67.6041 160.691 66.94 160.691 66.2476C160.691 65.5551 160.965 64.891 161.453 64.4014C161.941 63.9117 162.603 63.6366 163.293 63.6366H172.756C173.446 63.6366 174.108 63.9117 174.596 64.4014C175.084 64.891 175.358 65.5551 175.358 66.2476C175.358 66.94 175.084 67.6041 174.596 68.0938C174.108 68.5834 173.446 68.8585 172.756 68.8585ZM215.81 68.3838C215.808 69.1385 215.508 69.8617 214.976 70.3954C214.444 70.9291 213.724 71.2299 212.971 71.2321H205.875C205.122 71.2299 204.402 70.9291 203.87 70.3954C203.338 69.8617 203.038 69.1385 203.036 68.3838V64.1114C203.038 63.3566 203.338 62.6334 203.87 62.0997C204.402 61.5661 205.122 61.2653 205.875 61.263H212.971C213.724 61.2653 214.444 61.5661 214.976 62.0997C215.508 62.6334 215.808 63.3566 215.81 64.1114V68.3838Z" fill="#01FF5F"/>
<path d="M208.122 67.5532H205.047C204.827 67.5532 204.616 67.6408 204.461 67.7965C204.306 67.9523 204.219 68.1636 204.219 68.384C204.219 68.6043 204.306 68.8156 204.461 68.9714C204.616 69.1272 204.827 69.2147 205.047 69.2147H208.122C208.341 69.2147 208.552 69.1272 208.707 68.9714C208.863 68.8156 208.95 68.6043 208.95 68.384C208.95 68.1636 208.863 67.9523 208.707 67.7965C208.552 67.6408 208.341 67.5532 208.122 67.5532ZM208.122 68.74H205.047C205 68.7401 204.954 68.731 204.911 68.7132C204.867 68.6953 204.828 68.6691 204.795 68.6361C204.762 68.603 204.736 68.5637 204.718 68.5204C204.7 68.4772 204.691 68.4308 204.691 68.384C204.691 68.3371 204.7 68.2908 204.718 68.2475C204.736 68.2042 204.762 68.165 204.795 68.1319C204.828 68.0988 204.867 68.0726 204.911 68.0548C204.954 68.0369 205 68.0278 205.047 68.0279H208.122C208.216 68.0282 208.306 68.0658 208.372 68.1326C208.439 68.1993 208.476 68.2897 208.476 68.384C208.476 68.4782 208.439 68.5687 208.372 68.6354C208.306 68.7021 208.216 68.7398 208.122 68.74Z" fill="#01FF5F"/>
<path d="M213.799 67.5532H210.724C210.504 67.5532 210.294 67.6408 210.139 67.7965C209.983 67.9523 209.896 68.1636 209.896 68.384C209.896 68.6043 209.983 68.8156 210.139 68.9714C210.294 69.1272 210.504 69.2147 210.724 69.2147H213.799C214.019 69.2147 214.23 69.1272 214.385 68.9714C214.54 68.8156 214.627 68.6043 214.627 68.384C214.627 68.1636 214.54 67.9523 214.385 67.7965C214.23 67.6408 214.019 67.5532 213.799 67.5532ZM213.799 68.74H210.724C210.677 68.7401 210.631 68.731 210.588 68.7132C210.545 68.6953 210.506 68.6691 210.473 68.6361C210.439 68.603 210.413 68.5637 210.395 68.5204C210.377 68.4772 210.368 68.4308 210.368 68.384C210.368 68.3371 210.377 68.2908 210.395 68.2475C210.413 68.2042 210.439 68.165 210.473 68.1319C210.506 68.0988 210.545 68.0726 210.588 68.0548C210.631 68.0369 210.677 68.0278 210.724 68.0279H213.799C213.893 68.0282 213.983 68.0658 214.05 68.1326C214.116 68.1993 214.153 68.2897 214.153 68.384C214.153 68.4782 214.116 68.5687 214.05 68.6354C213.983 68.7021 213.893 68.7398 213.799 68.74Z" fill="#01FF5F"/>
<path d="M208.122 65.417H205.047C204.827 65.417 204.616 65.5045 204.461 65.6603C204.306 65.8161 204.219 66.0274 204.219 66.2478C204.219 66.4681 204.306 66.6794 204.461 66.8352C204.616 66.991 204.827 67.0785 205.047 67.0785H208.122C208.341 67.0785 208.552 66.991 208.707 66.8352C208.863 66.6794 208.95 66.4681 208.95 66.2478C208.95 66.0274 208.863 65.8161 208.707 65.6603C208.552 65.5045 208.341 65.417 208.122 65.417ZM208.122 66.6038H205.047C205 66.6038 204.954 66.5946 204.911 66.5767C204.868 66.5588 204.829 66.5326 204.796 66.4995C204.763 66.4664 204.737 66.4272 204.719 66.384C204.701 66.3408 204.692 66.2945 204.692 66.2478C204.692 66.201 204.701 66.1547 204.719 66.1115C204.737 66.0683 204.763 66.0291 204.796 65.996C204.829 65.9629 204.868 65.9367 204.911 65.9188C204.954 65.9009 205 65.8917 205.047 65.8917H208.122C208.168 65.8917 208.215 65.9009 208.258 65.9188C208.301 65.9367 208.34 65.9629 208.373 65.996C208.406 66.0291 208.432 66.0683 208.45 66.1115C208.468 66.1547 208.477 66.201 208.477 66.2478C208.477 66.2945 208.468 66.3408 208.45 66.384C208.432 66.4272 208.406 66.4664 208.373 66.4995C208.34 66.5326 208.301 66.5588 208.258 66.5767C208.215 66.5946 208.168 66.6038 208.122 66.6038Z" fill="#01FF5F"/>
<path d="M213.799 65.417H210.724C210.504 65.417 210.294 65.5045 210.139 65.6603C209.983 65.8161 209.896 66.0274 209.896 66.2478C209.896 66.4681 209.983 66.6794 210.139 66.8352C210.294 66.991 210.504 67.0785 210.724 67.0785H213.799C214.019 67.0785 214.23 66.991 214.385 66.8352C214.54 66.6794 214.627 66.4681 214.627 66.2478C214.627 66.0274 214.54 65.8161 214.385 65.6603C214.23 65.5045 214.019 65.417 213.799 65.417ZM213.799 66.6038H210.724C210.677 66.6038 210.631 66.5946 210.588 66.5767C210.545 66.5588 210.506 66.5326 210.473 66.4995C210.44 66.4664 210.414 66.4272 210.396 66.384C210.378 66.3408 210.369 66.2945 210.369 66.2478C210.369 66.201 210.378 66.1547 210.396 66.1115C210.414 66.0683 210.44 66.0291 210.473 65.996C210.506 65.9629 210.545 65.9367 210.588 65.9188C210.631 65.9009 210.677 65.8917 210.724 65.8917H213.799C213.846 65.8917 213.892 65.9009 213.935 65.9188C213.978 65.9367 214.017 65.9629 214.05 65.996C214.083 66.0291 214.109 66.0683 214.127 66.1115C214.145 66.1547 214.154 66.201 214.154 66.2478C214.154 66.2945 214.145 66.3408 214.127 66.384C214.109 66.4272 214.083 66.4664 214.05 66.4995C214.017 66.5326 213.978 66.5588 213.935 66.5767C213.892 66.5946 213.846 66.6038 213.799 66.6038Z" fill="#01FF5F"/>
<path d="M208.122 63.2808H205.047C204.827 63.2808 204.616 63.3683 204.461 63.5241C204.306 63.6799 204.219 63.8912 204.219 64.1115C204.219 64.3319 204.306 64.5432 204.461 64.699C204.616 64.8548 204.827 64.9423 205.047 64.9423H208.122C208.341 64.9423 208.552 64.8548 208.707 64.699C208.863 64.5432 208.95 64.3319 208.95 64.1115C208.95 63.8912 208.863 63.6799 208.707 63.5241C208.552 63.3683 208.341 63.2808 208.122 63.2808ZM208.122 64.4676H205.047C205 64.4677 204.954 64.4586 204.911 64.4407C204.867 64.4229 204.828 64.3967 204.795 64.3636C204.762 64.3305 204.736 64.2912 204.718 64.248C204.7 64.2047 204.691 64.1584 204.691 64.1115C204.691 64.0647 204.7 64.0183 204.718 63.9751C204.736 63.9318 204.762 63.8925 204.795 63.8594C204.828 63.8264 204.867 63.8001 204.911 63.7823C204.954 63.7645 205 63.7554 205.047 63.7555H208.122C208.216 63.7557 208.306 63.7934 208.372 63.8601C208.439 63.9268 208.476 64.0173 208.476 64.1115C208.476 64.2058 208.439 64.2962 208.372 64.3629C208.306 64.4297 208.216 64.4673 208.122 64.4676Z" fill="#01FF5F"/>
<path d="M213.799 63.2808H210.724C210.504 63.2808 210.294 63.3683 210.139 63.5241C209.983 63.6799 209.896 63.8912 209.896 64.1115C209.896 64.3319 209.983 64.5432 210.139 64.699C210.294 64.8548 210.504 64.9423 210.724 64.9423H213.799C214.019 64.9423 214.23 64.8548 214.385 64.699C214.54 64.5432 214.627 64.3319 214.627 64.1115C214.627 63.8912 214.54 63.6799 214.385 63.5241C214.23 63.3683 214.019 63.2808 213.799 63.2808ZM213.799 64.4676H210.724C210.677 64.4677 210.631 64.4586 210.588 64.4407C210.545 64.4229 210.506 64.3967 210.473 64.3636C210.439 64.3305 210.413 64.2912 210.395 64.248C210.377 64.2047 210.368 64.1584 210.368 64.1115C210.368 64.0647 210.377 64.0183 210.395 63.9751C210.413 63.9318 210.439 63.8925 210.473 63.8594C210.506 63.8264 210.545 63.8001 210.588 63.7823C210.631 63.7645 210.677 63.7554 210.724 63.7555H213.799C213.893 63.7557 213.983 63.7934 214.05 63.8601C214.116 63.9268 214.153 64.0173 214.153 64.1115C214.153 64.2058 214.116 64.2962 214.05 64.3629C213.983 64.4297 213.893 64.4673 213.799 64.4676Z" fill="#01FF5F"/>
<path d="M143.505 58.6105C143.505 58.6105 140.144 72.8485 144.251 72.8485C148.359 72.8485 158.068 56.7371 158.068 56.7371C158.068 56.7371 168.151 51.4915 164.043 49.6181C159.935 47.7447 154.707 52.6156 154.707 52.6156L148.675 61.0188L148.359 56.7371L143.505 58.6105Z" fill="#A0616A"/>
<path d="M151.347 46.6204L149.106 44.3723C149.106 44.3723 144.625 46.9951 144.251 49.6179C143.878 52.2407 142.011 60.4837 142.011 60.4837L148.919 61.0457L151.16 57.6736L151.347 46.6204Z" fill="#CFCCE0"/>
</g>
</g>
<defs>
<linearGradient id="paint0_linear" x1="52.6537" y1="96.9535" x2="52.6537" y2="96.8804" gradientUnits="userSpaceOnUse">
<stop stop-color="#808080" stop-opacity="0.251"/>
<stop offset="0.54" stop-color="#808080" stop-opacity="0.122"/>
<stop offset="1" stop-color="#808080" stop-opacity="0.102"/>
</linearGradient>
<clipPath id="clip0">
<rect width="227" height="189" fill="white"/>
</clipPath>
<clipPath id="clip1">
<rect width="223.356" height="135" fill="white" transform="translate(112.926 22.207)"/>
</clipPath>
</defs>
</svg>
