<svg width="119" height="119" viewBox="0 0 119 119" fill="none" xmlns="http://www.w3.org/2000/svg">
<path d="M72.3421 39.6666L59.5 52.5087L46.6579 39.6666L39.6667 46.6579L52.5088 59.5L39.6667 72.342L46.6579 79.3333L59.5 66.4912L72.3421 79.3333L79.3333 72.342L66.4913 59.5L79.3333 46.6579L72.3421 39.6666ZM59.5 9.91663C32.0804 9.91663 9.91667 32.0804 9.91667 59.5C9.91667 86.9195 32.0804 109.083 59.5 109.083C86.9196 109.083 109.083 86.9195 109.083 59.5C109.083 32.0804 86.9196 9.91663 59.5 9.91663ZM59.5 99.1666C37.6338 99.1666 19.8333 81.3662 19.8333 59.5C19.8333 37.6337 37.6338 19.8333 59.5 19.8333C81.3663 19.8333 99.1667 37.6337 99.1667 59.5C99.1667 81.3662 81.3663 99.1666 59.5 99.1666Z" fill="#FF0606"/>
</svg>
